<svg width="199" height="199" viewBox="0 0 199 199" fill="none" xmlns="http://www.w3.org/2000/svg">
<g filter="url(#filter0_di_426_170)">
<mask id="path-1-inside-1_426_170" fill="white">
<path fill-rule="evenodd" clip-rule="evenodd" d="M195 97.5C195 150.243 152.243 193 99.5 193C46.7568 193 4 150.243 4 97.5C4 44.7568 46.7568 2 99.5 2C152.243 2 195 44.7568 195 97.5ZM65.8893 69.6393C70.4605 65.0681 76.6603 62.5 83.125 62.5C86.8007 62.5 90.1494 63.0257 93.4255 64.4526C95.7238 65.4536 97.8704 66.8476 100 68.6475C102.13 66.8476 104.276 65.4536 106.574 64.4526C109.851 63.0257 113.199 62.5 116.875 62.5C123.34 62.5 129.54 65.0681 134.111 69.6393C138.682 74.2105 141.25 80.4103 141.25 86.875C141.25 92.4777 139.235 97.267 136.499 101.35C136.395 101.535 136.274 101.713 136.136 101.882C133.923 105.065 131.293 107.808 128.888 110.165L125.153 113.9L125.152 113.902L125.15 113.903L113.905 125.148C113.904 125.15 113.903 125.151 113.902 125.152C113.901 125.153 113.899 125.154 113.898 125.155L102.652 136.402C101.187 137.866 98.8128 137.866 97.3484 136.402L71.1206 110.174C65.479 104.718 58.75 97.1852 58.75 86.875C58.75 80.4103 61.3181 74.2105 65.8893 69.6393ZM111.25 117.197L106.402 112.348C104.937 110.884 102.563 110.884 101.098 112.348C99.6339 113.813 99.6339 116.187 101.098 117.652L105.947 122.5L100 128.447L76.4016 104.848C76.3867 104.833 76.3716 104.819 76.3563 104.804C70.7526 99.3869 66.25 93.8007 66.25 86.875C66.25 82.3995 68.0279 78.1073 71.1926 74.9426C74.3573 71.7779 78.6495 70 83.125 70C86.0493 70 88.3256 70.4118 90.4307 71.3287C91.757 71.9063 93.1067 72.7243 94.564 73.8871L86.2571 82.194C85.1466 83.2979 84.2651 84.6103 83.6632 86.0559C83.0604 87.5037 82.75 89.0566 82.75 90.625C82.75 92.1934 83.0604 93.7462 83.6632 95.1941C84.2651 96.6399 85.1468 97.9525 86.2575 99.0564C90.7609 103.555 97.9347 103.689 102.658 99.4546L102.69 99.4252L110.444 92.3081C111.699 91.1728 113.331 90.544 115.023 90.544C116.719 90.544 118.354 91.1752 119.609 92.3146L119.623 92.3267L128.148 99.9879C126.787 101.627 125.251 103.228 123.625 104.822L123.598 104.848L122.5 105.947L117.652 101.098C116.187 99.6339 113.813 99.6339 112.348 101.098C110.884 102.563 110.884 104.937 112.348 106.402L117.197 111.25L111.25 117.197ZM132.266 93.6049C133.207 91.4846 133.75 89.258 133.75 86.875C133.75 82.3995 131.972 78.1072 128.807 74.9426C125.643 71.7779 121.351 70 116.875 70C113.951 70 111.674 70.4118 109.569 71.3287C107.469 72.2434 105.311 73.7605 102.759 76.295C102.725 76.3311 102.691 76.3666 102.656 76.4016L91.5561 87.5016L91.5464 87.5113C91.1356 87.9191 90.8095 88.4042 90.587 88.9386C90.3645 89.473 90.25 90.0461 90.25 90.625C90.25 91.2039 90.3645 91.777 90.587 92.3114C90.8095 92.8458 91.1356 93.3309 91.5464 93.7387L91.5561 93.7483C93.1988 95.3911 95.8371 95.484 97.6371 93.8829L105.381 86.7748L105.397 86.7604C108.033 84.3688 111.464 83.044 115.023 83.044C118.579 83.044 122.007 84.3663 124.642 86.7537L124.649 86.7604L132.266 93.6049Z"/>
</mask>
<path fill-rule="evenodd" clip-rule="evenodd" d="M195 97.5C195 150.243 152.243 193 99.5 193C46.7568 193 4 150.243 4 97.5C4 44.7568 46.7568 2 99.5 2C152.243 2 195 44.7568 195 97.5ZM65.8893 69.6393C70.4605 65.0681 76.6603 62.5 83.125 62.5C86.8007 62.5 90.1494 63.0257 93.4255 64.4526C95.7238 65.4536 97.8704 66.8476 100 68.6475C102.13 66.8476 104.276 65.4536 106.574 64.4526C109.851 63.0257 113.199 62.5 116.875 62.5C123.34 62.5 129.54 65.0681 134.111 69.6393C138.682 74.2105 141.25 80.4103 141.25 86.875C141.25 92.4777 139.235 97.267 136.499 101.35C136.395 101.535 136.274 101.713 136.136 101.882C133.923 105.065 131.293 107.808 128.888 110.165L125.153 113.9L125.152 113.902L125.15 113.903L113.905 125.148C113.904 125.15 113.903 125.151 113.902 125.152C113.901 125.153 113.899 125.154 113.898 125.155L102.652 136.402C101.187 137.866 98.8128 137.866 97.3484 136.402L71.1206 110.174C65.479 104.718 58.75 97.1852 58.75 86.875C58.75 80.4103 61.3181 74.2105 65.8893 69.6393ZM111.25 117.197L106.402 112.348C104.937 110.884 102.563 110.884 101.098 112.348C99.6339 113.813 99.6339 116.187 101.098 117.652L105.947 122.5L100 128.447L76.4016 104.848C76.3867 104.833 76.3716 104.819 76.3563 104.804C70.7526 99.3869 66.25 93.8007 66.25 86.875C66.25 82.3995 68.0279 78.1073 71.1926 74.9426C74.3573 71.7779 78.6495 70 83.125 70C86.0493 70 88.3256 70.4118 90.4307 71.3287C91.757 71.9063 93.1067 72.7243 94.564 73.8871L86.2571 82.194C85.1466 83.2979 84.2651 84.6103 83.6632 86.0559C83.0604 87.5037 82.75 89.0566 82.75 90.625C82.75 92.1934 83.0604 93.7462 83.6632 95.1941C84.2651 96.6399 85.1468 97.9525 86.2575 99.0564C90.7609 103.555 97.9347 103.689 102.658 99.4546L102.69 99.4252L110.444 92.3081C111.699 91.1728 113.331 90.544 115.023 90.544C116.719 90.544 118.354 91.1752 119.609 92.3146L119.623 92.3267L128.148 99.9879C126.787 101.627 125.251 103.228 123.625 104.822L123.598 104.848L122.5 105.947L117.652 101.098C116.187 99.6339 113.813 99.6339 112.348 101.098C110.884 102.563 110.884 104.937 112.348 106.402L117.197 111.25L111.25 117.197ZM132.266 93.6049C133.207 91.4846 133.75 89.258 133.75 86.875C133.75 82.3995 131.972 78.1072 128.807 74.9426C125.643 71.7779 121.351 70 116.875 70C113.951 70 111.674 70.4118 109.569 71.3287C107.469 72.2434 105.311 73.7605 102.759 76.295C102.725 76.3311 102.691 76.3666 102.656 76.4016L91.5561 87.5016L91.5464 87.5113C91.1356 87.9191 90.8095 88.4042 90.587 88.9386C90.3645 89.473 90.25 90.0461 90.25 90.625C90.25 91.2039 90.3645 91.777 90.587 92.3114C90.8095 92.8458 91.1356 93.3309 91.5464 93.7387L91.5561 93.7483C93.1988 95.3911 95.8371 95.484 97.6371 93.8829L105.381 86.7748L105.397 86.7604C108.033 84.3688 111.464 83.044 115.023 83.044C118.579 83.044 122.007 84.3663 124.642 86.7537L124.649 86.7604L132.266 93.6049Z" fill="#2ECC71"/>
<path d="M93.4255 64.4526L93.8248 63.5357L93.8248 63.5357L93.4255 64.4526ZM100 68.6475L99.3545 69.4113L100 69.9569L100.646 69.4113L100 68.6475ZM106.574 64.4526L106.175 63.5357L106.175 63.5357L106.574 64.4526ZM134.111 69.6393L134.818 68.9322L134.818 68.9322L134.111 69.6393ZM136.499 101.35L135.668 100.794L135.647 100.826L135.628 100.859L136.499 101.35ZM136.136 101.882L135.362 101.249L135.337 101.279L135.315 101.311L136.136 101.882ZM128.888 110.165L128.188 109.451L128.181 109.458L128.888 110.165ZM102.652 136.402L101.945 135.695L101.945 135.695L102.652 136.402ZM97.3484 136.402L98.0555 135.695L98.0555 135.695L97.3484 136.402ZM71.1206 110.174L71.8277 109.467L71.8218 109.461L71.8158 109.455L71.1206 110.174ZM106.402 112.348L105.695 113.055L105.695 113.055L106.402 112.348ZM111.25 117.197L110.543 117.904L111.25 118.611L111.957 117.904L111.25 117.197ZM101.098 112.348L101.805 113.055L101.805 113.055L101.098 112.348ZM101.098 117.652L101.805 116.945L101.805 116.945L101.098 117.652ZM105.947 122.5L106.654 123.207L107.361 122.5L106.654 121.793L105.947 122.5ZM100 128.447L99.2929 129.154L100 129.861L100.707 129.154L100 128.447ZM76.3563 104.804L75.6613 105.523L75.6616 105.523L76.3563 104.804ZM90.4307 71.3287L90.83 70.4119L90.83 70.4119L90.4307 71.3287ZM94.564 73.8871L95.2711 74.5942L96.0622 73.8031L95.1877 73.1054L94.564 73.8871ZM86.2571 82.194L86.9621 82.9032L86.9642 82.9011L86.2571 82.194ZM83.6632 86.0559L84.5864 86.4402L84.5864 86.4402L83.6632 86.0559ZM83.6632 95.1941L84.5864 94.8098L84.5864 94.8098L83.6632 95.1941ZM86.2575 99.0564L86.9643 98.3489L86.9625 98.3472L86.2575 99.0564ZM102.658 99.4546L103.325 100.199L103.33 100.195L102.658 99.4546ZM102.69 99.4252L103.362 100.166L103.366 100.162L102.69 99.4252ZM110.444 92.3081L109.773 91.5666L109.768 91.5714L110.444 92.3081ZM119.609 92.3146L118.937 93.0552L118.939 93.0567L119.609 92.3146ZM119.623 92.3267L118.953 93.0688L118.954 93.0705L119.623 92.3267ZM128.148 99.9879L128.918 100.627L129.532 99.8869L128.817 99.2442L128.148 99.9879ZM123.625 104.822L122.926 104.107L122.922 104.111L123.625 104.822ZM123.598 104.848L122.895 104.138L122.891 104.141L123.598 104.848ZM122.5 105.947L121.793 106.654L122.5 107.361L123.207 106.654L122.5 105.947ZM117.652 101.098L116.945 101.805L116.945 101.805L117.652 101.098ZM112.348 101.098L113.055 101.805L113.055 101.805L112.348 101.098ZM112.348 106.402L113.055 105.695L113.055 105.695L112.348 106.402ZM117.197 111.25L117.904 111.957L118.611 111.25L117.904 110.543L117.197 111.25ZM132.266 93.6049L131.597 94.3487L132.621 95.2686L133.18 94.0107L132.266 93.6049ZM128.807 74.9426L128.1 75.6497L128.1 75.6497L128.807 74.9426ZM109.569 71.3287L109.17 70.4119L109.17 70.4119L109.569 71.3287ZM102.759 76.295L102.054 75.5855L102.039 75.6003L102.025 75.6158L102.759 76.295ZM91.5464 87.5113L92.2509 88.221L92.2535 88.2184L91.5464 87.5113ZM91.5464 93.7387L90.8419 94.4484L90.8421 94.4486L91.5464 93.7387ZM91.5561 93.7483L92.2632 93.0412L92.2604 93.0384L91.5561 93.7483ZM97.6371 93.8829L98.3017 94.6301L98.3076 94.6249L98.3133 94.6196L97.6371 93.8829ZM105.381 86.7748L104.707 86.0362L104.705 86.0381L105.381 86.7748ZM105.397 86.7604L104.725 86.0198L104.723 86.0218L105.397 86.7604ZM124.642 86.7537L125.314 86.0128L125.314 86.0127L124.642 86.7537ZM124.649 86.7604L123.978 87.5013L123.981 87.5042L124.649 86.7604ZM99.5 194C152.795 194 196 150.795 196 97.5H194C194 149.691 151.691 192 99.5 192V194ZM3 97.5C3 150.795 46.2045 194 99.5 194V192C47.3091 192 5 149.691 5 97.5H3ZM99.5 1C46.2045 1 3 44.2045 3 97.5H5C5 45.3091 47.3091 3 99.5 3V1ZM196 97.5C196 44.2045 152.795 1 99.5 1V3C151.691 3 194 45.3091 194 97.5H196ZM83.125 61.5C76.3951 61.5 69.9409 64.1734 65.1822 68.9322L66.5964 70.3464C70.98 65.9627 76.9256 63.5 83.125 63.5V61.5ZM93.8248 63.5357C90.3926 62.0409 86.9008 61.5 83.125 61.5V63.5C86.7006 63.5 89.9063 64.0105 93.0262 65.3694L93.8248 63.5357ZM100.646 67.8838C98.4564 66.0337 96.2284 64.5826 93.8248 63.5357L93.0262 65.3694C95.2193 66.3246 97.2843 67.6616 99.3545 69.4113L100.646 67.8838ZM106.175 63.5357C103.772 64.5826 101.544 66.0337 99.3545 67.8838L100.646 69.4113C102.716 67.6616 104.781 66.3246 106.974 65.3694L106.175 63.5357ZM116.875 61.5C113.099 61.5 109.607 62.0409 106.175 63.5357L106.974 65.3694C110.094 64.0105 113.299 63.5 116.875 63.5V61.5ZM134.818 68.9322C130.059 64.1734 123.605 61.5 116.875 61.5V63.5C123.074 63.5 129.02 65.9627 133.404 70.3464L134.818 68.9322ZM142.25 86.875C142.25 80.1451 139.577 73.6909 134.818 68.9322L133.404 70.3464C137.787 74.73 140.25 80.6756 140.25 86.875H142.25ZM137.33 101.907C140.141 97.7117 142.25 92.7311 142.25 86.875H140.25C140.25 92.2244 138.33 96.8223 135.668 100.794L137.33 101.907ZM136.911 102.514C137.085 102.3 137.239 102.075 137.371 101.841L135.628 100.859C135.552 100.994 135.463 101.125 135.362 101.249L136.911 102.514ZM129.588 110.879C132.006 108.51 134.689 105.714 136.957 102.453L135.315 101.311C133.156 104.415 130.58 107.106 128.188 109.451L129.588 110.879ZM125.86 114.607L129.595 110.872L128.181 109.458L124.446 113.193L125.86 114.607ZM125.859 114.609L125.86 114.607L124.446 113.193L124.445 113.195L125.859 114.609ZM125.857 114.61L125.859 114.609L124.445 113.195L124.443 113.196L125.857 114.61ZM114.612 125.856L125.857 114.61L124.443 113.196L113.198 124.441L114.612 125.856ZM113.198 124.441C113.198 124.441 113.198 124.441 113.198 124.441C113.198 124.441 113.198 124.441 113.198 124.441C113.198 124.441 113.198 124.441 113.198 124.441C113.198 124.441 113.198 124.441 113.198 124.441C113.198 124.441 113.198 124.441 113.198 124.441C113.198 124.441 113.198 124.441 113.198 124.441C113.198 124.441 113.198 124.441 113.198 124.441C113.198 124.441 113.198 124.441 113.198 124.441C113.198 124.441 113.198 124.441 113.198 124.441C113.198 124.441 113.198 124.441 113.198 124.441C113.198 124.441 113.198 124.441 113.198 124.441C113.198 124.441 113.198 124.441 113.198 124.441C113.198 124.441 113.198 124.441 113.198 124.441C113.198 124.441 113.198 124.441 113.198 124.441C113.198 124.441 113.198 124.441 113.198 124.441C113.198 124.441 113.198 124.441 113.198 124.441C113.198 124.441 113.198 124.441 113.198 124.441C113.198 124.441 113.198 124.441 113.198 124.441C113.198 124.441 113.198 124.441 113.198 124.441C113.198 124.441 113.198 124.441 113.198 124.441C113.198 124.441 113.198 124.441 113.198 124.441C113.198 124.441 113.198 124.441 113.198 124.441C113.198 124.441 113.198 124.441 113.198 124.441C113.198 124.441 113.198 124.441 113.198 124.441C113.198 124.441 113.198 124.441 113.198 124.441C113.198 124.441 113.198 124.441 113.198 124.441C113.198 124.441 113.198 124.441 113.198 124.441C113.198 124.441 113.198 124.441 113.198 124.441C113.198 124.442 113.198 124.442 113.198 124.442C113.198 124.442 113.198 124.442 113.198 124.442C113.198 124.442 113.198 124.442 113.198 124.442C113.198 124.442 113.198 124.442 113.198 124.442C113.198 124.442 113.198 124.442 113.198 124.442C113.198 124.442 113.198 124.442 113.198 124.442C113.198 124.442 113.198 124.442 113.198 124.442C113.198 124.442 113.198 124.442 113.198 124.442C113.198 124.442 113.198 124.442 113.198 124.442C113.198 124.442 113.198 124.442 113.198 124.442C113.198 124.442 113.198 124.442 113.198 124.442C113.198 124.442 113.198 124.442 113.198 124.442C113.198 124.442 113.198 124.442 113.198 124.442C113.198 124.442 113.197 124.442 113.197 124.442C113.197 124.442 113.197 124.442 113.197 124.442C113.197 124.442 113.197 124.442 113.197 124.442C113.197 124.442 113.197 124.442 113.197 124.442C113.197 124.442 113.197 124.442 113.197 124.442C113.197 124.442 113.197 124.442 113.197 124.442C113.197 124.442 113.197 124.442 113.197 124.442C113.197 124.442 113.197 124.442 113.197 124.442C113.197 124.442 113.197 124.442 113.197 124.442C113.197 124.442 113.197 124.442 113.197 124.442C113.197 124.442 113.197 124.442 113.197 124.442C113.197 124.442 113.197 124.442 113.197 124.442C113.197 124.442 113.197 124.442 113.197 124.442C113.197 124.442 113.197 124.442 113.197 124.442C113.197 124.442 113.197 124.442 113.197 124.442C113.197 124.442 113.197 124.442 113.197 124.442C113.197 124.442 113.197 124.442 113.197 124.442C113.197 124.442 113.197 124.442 113.197 124.442C113.197 124.442 113.197 124.442 113.197 124.442C113.197 124.442 113.197 124.442 113.197 124.442C113.197 124.442 113.197 124.442 113.197 124.442C113.197 124.442 113.197 124.442 113.197 124.442C113.197 124.442 113.197 124.442 113.197 124.442C113.197 124.442 113.197 124.442 113.197 124.442C113.197 124.442 113.197 124.442 113.197 124.442C113.197 124.442 113.197 124.442 113.197 124.442C113.197 124.442 113.197 124.442 113.197 124.442C113.197 124.442 113.197 124.442 113.197 124.442C113.197 124.442 113.197 124.442 113.197 124.442C113.197 124.442 113.197 124.442 113.197 124.442C113.197 124.442 113.197 124.442 113.197 124.442C113.197 124.442 113.197 124.442 113.197 124.442C113.197 124.442 113.197 124.442 113.197 124.442C113.197 124.442 113.197 124.442 113.197 124.442C113.197 124.442 113.197 124.442 113.197 124.442C113.197 124.442 113.197 124.442 113.197 124.442C113.197 124.442 113.197 124.442 113.197 124.442C113.197 124.442 113.197 124.442 113.197 124.442C113.197 124.442 113.197 124.442 113.197 124.442C113.197 124.442 113.197 124.442 113.197 124.442C113.197 124.442 113.197 124.442 113.197 124.442C113.197 124.442 113.197 124.442 113.197 124.442C113.197 124.442 113.197 124.442 113.197 124.442C113.197 124.442 113.197 124.442 113.197 124.442C113.197 124.442 113.197 124.442 113.197 124.442C113.197 124.442 113.197 124.442 113.197 124.442C113.197 124.442 113.197 124.442 113.197 124.442C113.197 124.442 113.197 124.442 113.197 124.442C113.197 124.442 113.197 124.442 113.197 124.442C113.197 124.442 113.197 124.442 113.197 124.442C113.197 124.442 113.197 124.442 113.197 124.442C113.197 124.442 113.197 124.442 113.197 124.442C113.197 124.442 113.197 124.442 113.197 124.442C113.197 124.442 113.197 124.442 113.197 124.442C113.197 124.442 113.197 124.442 113.197 124.442C113.197 124.442 113.197 124.442 113.197 124.442C113.197 124.442 113.197 124.442 113.197 124.442C113.197 124.442 113.197 124.442 113.197 124.442C113.197 124.442 113.197 124.442 113.197 124.442C113.197 124.442 113.197 124.442 113.197 124.442C113.197 124.442 113.197 124.442 113.197 124.442C113.197 124.442 113.197 124.442 113.197 124.442C113.197 124.442 113.197 124.442 113.197 124.442C113.197 124.442 113.197 124.442 113.197 124.442C113.197 124.442 113.197 124.442 113.197 124.442C113.197 124.442 113.197 124.442 113.197 124.442C113.197 124.442 113.197 124.442 113.197 124.442C113.197 124.442 113.197 124.442 113.197 124.442C113.197 124.442 113.197 124.442 113.197 124.442C113.197 124.442 113.197 124.442 113.197 124.442C113.197 124.442 113.197 124.442 113.197 124.442C113.197 124.442 113.197 124.442 113.197 124.442C113.197 124.442 113.197 124.442 113.197 124.442C113.197 124.442 113.197 124.442 113.197 124.442C113.197 124.442 113.197 124.442 113.197 124.442C113.197 124.442 113.197 124.442 113.197 124.442C113.197 124.442 113.197 124.442 113.197 124.442C113.197 124.442 113.197 124.442 113.197 124.442C113.197 124.442 113.197 124.442 113.197 124.442C113.197 124.442 113.197 124.442 113.197 124.442C113.197 124.442 113.197 124.442 113.197 124.442C113.197 124.442 113.197 124.442 113.197 124.442C113.197 124.442 113.197 124.442 113.197 124.442C113.197 124.442 113.197 124.442 113.197 124.442C113.197 124.442 113.197 124.442 113.197 124.442C113.197 124.442 113.197 124.442 113.197 124.442C113.197 124.442 113.197 124.442 113.197 124.442C113.197 124.442 113.197 124.442 113.197 124.442C113.197 124.442 113.197 124.442 113.197 124.442C113.197 124.442 113.197 124.442 113.197 124.442C113.197 124.442 113.197 124.442 113.197 124.442C113.197 124.442 113.197 124.442 113.197 124.442C113.197 124.442 113.197 124.442 113.197 124.442C113.197 124.442 113.197 124.442 113.197 124.442C113.197 124.442 113.197 124.442 113.197 124.442C113.197 124.442 113.197 124.442 113.197 124.442C113.197 124.442 113.197 124.442 113.197 124.442C113.197 124.442 113.197 124.442 113.197 124.442C113.197 124.442 113.197 124.442 113.197 124.442C113.197 124.442 113.197 124.442 113.197 124.442C113.197 124.442 113.197 124.442 113.197 124.442C113.197 124.442 113.197 124.442 113.197 124.442C113.197 124.442 113.197 124.442 113.197 124.442C113.197 124.442 113.197 124.442 113.197 124.442C113.197 124.442 113.197 124.442 113.197 124.442C113.197 124.442 113.197 124.442 113.197 124.442C113.197 124.442 113.197 124.442 113.197 124.442C113.197 124.442 113.197 124.442 113.197 124.442C113.197 124.442 113.197 124.442 113.197 124.442C113.197 124.442 113.197 124.442 113.197 124.442C113.197 124.442 113.197 124.442 113.197 124.442C113.197 124.442 113.197 124.442 113.197 124.442C113.197 124.442 113.197 124.442 113.197 124.442C113.197 124.442 113.197 124.442 113.197 124.442C113.197 124.442 113.197 124.442 113.197 124.442C113.197 124.442 113.197 124.442 113.197 124.442C113.197 124.442 113.197 124.442 113.197 124.442C113.197 124.442 113.197 124.442 113.197 124.442C113.197 124.442 113.197 124.442 113.197 124.442C113.197 124.442 113.197 124.442 113.197 124.442C113.197 124.442 113.197 124.442 113.197 124.442C113.197 124.442 113.197 124.442 113.197 124.442C113.197 124.442 113.197 124.442 113.197 124.442C113.197 124.442 113.197 124.442 113.197 124.442C113.197 124.442 113.197 124.442 113.197 124.442C113.197 124.442 113.197 124.442 113.197 124.442C113.197 124.442 113.197 124.442 113.197 124.442C113.197 124.442 113.197 124.442 113.197 124.442C113.197 124.442 113.197 124.442 113.197 124.442C113.197 124.442 113.197 124.442 113.197 124.442C113.197 124.442 113.197 124.442 113.197 124.442C113.197 124.442 113.197 124.442 113.197 124.442C113.197 124.442 113.197 124.442 113.197 124.442C113.197 124.442 113.197 124.442 113.197 124.442C113.197 124.442 113.197 124.442 113.197 124.442C113.197 124.442 113.197 124.442 113.197 124.442C113.197 124.442 113.197 124.442 113.197 124.442C113.197 124.442 113.197 124.442 113.197 124.442C113.197 124.442 113.197 124.442 113.197 124.442C113.197 124.442 113.197 124.442 113.197 124.442C113.197 124.442 113.197 124.442 113.197 124.442C113.197 124.442 113.197 124.442 113.197 124.442C113.197 124.442 113.197 124.442 113.197 124.442C113.197 124.442 113.197 124.442 113.197 124.442C113.197 124.442 113.197 124.442 113.197 124.442C113.197 124.442 113.197 124.442 113.197 124.442C113.197 124.443 113.197 124.443 113.197 124.443C113.197 124.443 113.197 124.443 113.197 124.443C113.197 124.443 113.197 124.443 113.197 124.443C113.197 124.443 113.197 124.443 113.197 124.443C113.197 124.443 113.197 124.443 113.197 124.443C113.197 124.443 113.197 124.443 113.197 124.443C113.197 124.443 113.197 124.443 113.197 124.443C113.197 124.443 113.197 124.443 113.197 124.443C113.197 124.443 113.197 124.443 113.197 124.443C113.197 124.443 113.197 124.443 113.197 124.443C113.197 124.443 113.197 124.443 113.197 124.443C113.197 124.443 113.197 124.443 113.197 124.443C113.197 124.443 113.197 124.443 113.197 124.443C113.197 124.443 113.197 124.443 113.196 124.443C113.196 124.443 113.196 124.443 113.196 124.443C113.196 124.443 113.196 124.443 113.196 124.443C113.196 124.443 113.196 124.443 113.196 124.443C113.196 124.443 113.196 124.443 113.196 124.443C113.196 124.443 113.196 124.443 113.196 124.443C113.196 124.443 113.196 124.443 113.196 124.443C113.196 124.443 113.196 124.443 113.196 124.443C113.196 124.443 113.196 124.443 113.196 124.443C113.196 124.443 113.196 124.443 113.196 124.443C113.196 124.443 113.196 124.443 113.196 124.443C113.196 124.443 113.196 124.443 113.196 124.443C113.196 124.443 113.196 124.443 113.196 124.443C113.196 124.443 113.196 124.443 113.196 124.443C113.196 124.443 113.196 124.443 113.196 124.443C113.196 124.443 113.196 124.443 113.196 124.443C113.196 124.443 113.196 124.443 113.196 124.443C113.196 124.443 113.196 124.443 113.196 124.443C113.196 124.443 113.196 124.443 113.196 124.443C113.196 124.443 113.196 124.443 113.196 124.443C113.196 124.443 113.196 124.443 113.196 124.443C113.196 124.443 113.196 124.443 113.196 124.443C113.196 124.443 113.196 124.443 113.196 124.443C113.196 124.443 113.196 124.443 113.196 124.443C113.196 124.443 113.196 124.443 113.196 124.443C113.196 124.443 113.196 124.443 113.196 124.443C113.196 124.443 113.196 124.443 113.196 124.443C113.196 124.443 113.196 124.443 113.196 124.443C113.196 124.443 113.196 124.443 113.196 124.443C113.196 124.443 113.196 124.443 113.196 124.443C113.196 124.443 113.196 124.443 113.196 124.443C113.196 124.443 113.196 124.443 113.196 124.443C113.196 124.443 113.196 124.443 113.196 124.443C113.196 124.443 113.196 124.443 113.196 124.443C113.196 124.443 113.196 124.443 113.196 124.443C113.196 124.443 113.196 124.443 113.196 124.443C113.196 124.443 113.196 124.443 113.196 124.443C113.196 124.443 113.196 124.443 113.196 124.443C113.196 124.443 113.196 124.443 113.196 124.443C113.196 124.443 113.196 124.443 113.196 124.443C113.196 124.443 113.196 124.443 113.196 124.443C113.196 124.443 113.196 124.443 113.196 124.443C113.196 124.443 113.196 124.443 113.196 124.443C113.196 124.443 113.196 124.443 113.196 124.443C113.196 124.443 113.196 124.443 113.196 124.443C113.196 124.443 113.196 124.443 113.196 124.443C113.196 124.443 113.196 124.443 113.196 124.443C113.196 124.443 113.196 124.443 113.196 124.443C113.196 124.443 113.196 124.443 113.196 124.443C113.196 124.443 113.196 124.443 113.196 124.443C113.196 124.443 113.196 124.443 113.196 124.443C113.196 124.443 113.196 124.443 113.196 124.443C113.196 124.443 113.196 124.443 113.196 124.443C113.196 124.443 113.196 124.443 113.196 124.443C113.196 124.443 113.196 124.443 113.196 124.443C113.196 124.443 113.196 124.443 113.196 124.443C113.196 124.443 113.196 124.443 113.196 124.443C113.196 124.443 113.196 124.443 113.196 124.443C113.196 124.443 113.196 124.443 113.196 124.443C113.196 124.443 113.196 124.443 113.196 124.443C113.196 124.443 113.196 124.443 113.196 124.443C113.196 124.443 113.196 124.443 113.196 124.443C113.196 124.443 113.196 124.443 113.196 124.443C113.196 124.443 113.196 124.443 113.196 124.443C113.196 124.443 113.196 124.443 113.196 124.443C113.196 124.443 113.196 124.443 113.196 124.443C113.196 124.443 113.196 124.443 113.196 124.443C113.196 124.443 113.196 124.443 113.196 124.443C113.196 124.443 113.196 124.443 113.196 124.443C113.196 124.443 113.196 124.443 113.196 124.443C113.196 124.443 113.196 124.443 113.196 124.443C113.196 124.443 113.196 124.443 113.196 124.443C113.196 124.443 113.196 124.443 113.196 124.443C113.196 124.443 113.196 124.443 113.196 124.443C113.196 124.443 113.196 124.443 113.196 124.443C113.196 124.443 113.196 124.443 113.196 124.443C113.196 124.443 113.196 124.443 113.196 124.443C113.196 124.443 113.196 124.443 113.196 124.443C113.196 124.443 113.196 124.443 113.196 124.443C113.196 124.443 113.196 124.443 113.196 124.443C113.196 124.443 113.196 124.443 113.196 124.443C113.196 124.443 113.196 124.443 113.196 124.443C113.196 124.443 113.196 124.443 113.196 124.443C113.196 124.443 113.196 124.443 113.196 124.443C113.196 124.443 113.196 124.443 113.196 124.443C113.196 124.443 113.196 124.443 113.196 124.443C113.196 124.443 113.196 124.443 113.196 124.443C113.196 124.443 113.196 124.443 113.196 124.443C113.196 124.443 113.196 124.443 113.196 124.443C113.196 124.443 113.196 124.443 113.196 124.443C113.196 124.443 113.196 124.443 113.196 124.443C113.196 124.443 113.196 124.443 113.196 124.443C113.196 124.443 113.196 124.443 113.196 124.443C113.196 124.443 113.196 124.443 113.196 124.443C113.196 124.443 113.196 124.443 113.196 124.443C113.196 124.443 113.196 124.443 113.196 124.443C113.196 124.443 113.196 124.443 113.196 124.443C113.196 124.443 113.196 124.443 113.196 124.443C113.196 124.443 113.196 124.443 113.196 124.443C113.196 124.443 113.196 124.443 113.196 124.443C113.196 124.443 113.196 124.443 113.196 124.443C113.196 124.443 113.196 124.443 113.196 124.443C113.196 124.443 113.196 124.443 113.196 124.443C113.196 124.443 113.196 124.443 113.196 124.443C113.196 124.443 113.196 124.443 113.196 124.443C113.196 124.443 113.196 124.443 113.196 124.443C113.196 124.443 113.196 124.443 113.196 124.443C113.196 124.443 113.196 124.443 113.196 124.443C113.196 124.443 113.196 124.443 113.196 124.443C113.196 124.443 113.196 124.443 113.196 124.443C113.196 124.443 113.196 124.443 113.196 124.443C113.196 124.443 113.196 124.443 113.196 124.443C113.196 124.443 113.196 124.443 113.196 124.443C113.196 124.443 113.196 124.443 113.196 124.443C113.196 124.443 113.196 124.443 113.196 124.443C113.196 124.443 113.196 124.443 113.196 124.443C113.196 124.443 113.196 124.443 113.196 124.443C113.196 124.443 113.196 124.443 113.196 124.443C113.196 124.443 113.196 124.443 113.196 124.443C113.196 124.443 113.196 124.443 113.196 124.443C113.196 124.443 113.196 124.443 113.196 124.443C113.196 124.443 113.196 124.443 113.196 124.443C113.196 124.443 113.196 124.443 113.196 124.443C113.196 124.443 113.196 124.443 113.196 124.443C113.196 124.443 113.196 124.443 113.196 124.443C113.196 124.443 113.196 124.443 113.196 124.443C113.196 124.443 113.196 124.443 113.196 124.443C113.196 124.443 113.196 124.443 113.196 124.443C113.196 124.443 113.196 124.443 113.196 124.443C113.196 124.443 113.196 124.443 113.196 124.443C113.196 124.443 113.196 124.443 113.196 124.443C113.196 124.443 113.196 124.443 113.196 124.443C113.196 124.443 113.196 124.443 113.196 124.443C113.196 124.443 113.196 124.443 113.196 124.443C113.196 124.443 113.196 124.443 113.196 124.443C113.196 124.443 113.196 124.443 113.196 124.443C113.196 124.443 113.196 124.443 113.196 124.443C113.196 124.443 113.196 124.443 113.196 124.443C113.196 124.443 113.196 124.443 113.196 124.443C113.196 124.443 113.196 124.443 113.196 124.443C113.196 124.443 113.196 124.443 113.196 124.443C113.196 124.443 113.196 124.443 113.196 124.443C113.196 124.443 113.196 124.443 113.196 124.443C113.196 124.443 113.196 124.443 113.196 124.443C113.196 124.443 113.196 124.443 113.196 124.443C113.196 124.443 113.196 124.443 113.196 124.443C113.196 124.444 113.196 124.444 113.196 124.444C113.196 124.444 113.196 124.444 113.196 124.444C113.196 124.444 113.196 124.444 113.196 124.444C113.196 124.444 113.196 124.444 113.196 124.444C113.196 124.444 113.196 124.444 113.196 124.444C113.196 124.444 113.196 124.444 113.196 124.444C113.196 124.444 113.196 124.444 113.196 124.444C113.196 124.444 113.196 124.444 113.196 124.444C113.196 124.444 113.196 124.444 113.196 124.444C113.196 124.444 113.196 124.444 113.196 124.444C113.196 124.444 113.196 124.444 113.196 124.444C113.196 124.444 113.196 124.444 113.196 124.444C113.196 124.444 113.196 124.444 113.196 124.444C113.196 124.444 113.196 124.444 113.195 124.444C113.195 124.444 113.195 124.444 113.195 124.444C113.195 124.444 113.195 124.444 113.195 124.444C113.195 124.444 113.195 124.444 113.195 124.444C113.195 124.444 113.195 124.444 113.195 124.444C113.195 124.444 113.195 124.444 113.195 124.444C113.195 124.444 113.195 124.444 113.195 124.444C113.195 124.444 113.195 124.444 113.195 124.444C113.195 124.444 113.195 124.444 113.195 124.444C113.195 124.444 113.195 124.444 113.195 124.444C113.195 124.444 113.195 124.444 113.195 124.444C113.195 124.444 113.195 124.444 113.195 124.444C113.195 124.444 113.195 124.444 113.195 124.444C113.195 124.444 113.195 124.444 113.195 124.444C113.195 124.444 113.195 124.444 113.195 124.444C113.195 124.444 113.195 124.444 113.195 124.444C113.195 124.444 113.195 124.444 113.195 124.444C113.195 124.444 113.195 124.444 113.195 124.444C113.195 124.444 113.195 124.444 113.195 124.444C113.195 124.444 113.195 124.444 113.195 124.444C113.195 124.444 113.195 124.444 113.195 124.444C113.195 124.444 113.195 124.444 113.195 124.444C113.195 124.444 113.195 124.444 113.195 124.444C113.195 124.444 113.195 124.444 113.195 124.444C113.195 124.444 113.195 124.444 113.195 124.444C113.195 124.444 113.195 124.444 113.195 124.444C113.195 124.444 113.195 124.444 113.195 124.444C113.195 124.444 113.195 124.444 113.195 124.444C113.195 124.444 113.195 124.444 113.195 124.444C113.195 124.444 113.195 124.444 113.195 124.444C113.195 124.444 113.195 124.444 113.195 124.444C113.195 124.444 113.195 124.444 113.195 124.444C113.195 124.444 113.195 124.444 113.195 124.444C113.195 124.444 113.195 124.444 113.195 124.444C113.195 124.444 113.195 124.444 113.195 124.444C113.195 124.444 113.195 124.444 113.195 124.444C113.195 124.444 113.195 124.444 113.195 124.444C113.195 124.444 113.195 124.444 113.195 124.444C113.195 124.444 113.195 124.444 113.195 124.444C113.195 124.444 113.195 124.444 113.195 124.444C113.195 124.444 113.195 124.444 113.195 124.444C113.195 124.444 113.195 124.444 113.195 124.444C113.195 124.444 113.195 124.444 113.195 124.444C113.195 124.444 113.195 124.444 113.195 124.444C113.195 124.444 113.195 124.444 113.195 124.444C113.195 124.444 113.195 124.444 113.195 124.444C113.195 124.444 113.195 124.444 113.195 124.444C113.195 124.444 113.195 124.444 113.195 124.444C113.195 124.444 113.195 124.444 113.195 124.444C113.195 124.444 113.195 124.444 113.195 124.444C113.195 124.444 113.195 124.444 113.195 124.444C113.195 124.444 113.195 124.444 113.195 124.444C113.195 124.444 113.195 124.444 113.195 124.444C113.195 124.444 113.195 124.444 113.195 124.444C113.195 124.444 113.195 124.444 113.195 124.444C113.195 124.444 113.195 124.444 113.195 124.444C113.195 124.444 113.195 124.444 113.195 124.444C113.195 124.444 113.195 124.444 113.195 124.444C113.195 124.444 113.195 124.444 113.195 124.444C113.195 124.444 113.195 124.444 113.195 124.444C113.195 124.444 113.195 124.444 113.195 124.444C113.195 124.444 113.195 124.444 113.195 124.444C113.195 124.444 113.195 124.444 113.195 124.444C113.195 124.444 113.195 124.444 113.195 124.444C113.195 124.444 113.195 124.444 113.195 124.444C113.195 124.444 113.195 124.444 113.195 124.444C113.195 124.444 113.195 124.444 113.195 124.444C113.195 124.444 113.195 124.444 113.195 124.444C113.195 124.444 113.195 124.444 113.195 124.444C113.195 124.444 113.195 124.444 113.195 124.444C113.195 124.444 113.195 124.444 113.195 124.444C113.195 124.444 113.195 124.444 113.195 124.444C113.195 124.444 113.195 124.444 113.195 124.444C113.195 124.444 113.195 124.444 113.195 124.444C113.195 124.444 113.195 124.444 113.195 124.444C113.195 124.444 113.195 124.444 113.195 124.444C113.195 124.444 113.195 124.444 113.195 124.444C113.195 124.444 113.195 124.444 113.195 124.444C113.195 124.444 113.195 124.444 113.195 124.444C113.195 124.444 113.195 124.444 113.195 124.444C113.195 124.444 113.195 124.444 113.195 124.444C113.195 124.444 113.195 124.444 113.195 124.444C113.195 124.444 113.195 124.444 113.195 124.444C113.195 124.444 113.195 124.444 113.195 124.444C113.195 124.444 113.195 124.444 113.195 124.444C113.195 124.444 113.195 124.444 113.195 124.444C113.195 124.444 113.195 124.444 113.195 124.444C113.195 124.444 113.195 124.444 113.195 124.444C113.195 124.444 113.195 124.444 113.195 124.444C113.195 124.444 113.195 124.444 113.195 124.444C113.195 124.444 113.195 124.444 113.195 124.444C113.195 124.444 113.195 124.444 113.195 124.444C113.195 124.444 113.195 124.444 113.195 124.444C113.195 124.444 113.195 124.444 113.195 124.444C113.195 124.444 113.195 124.444 113.195 124.444C113.195 124.444 113.195 124.444 113.195 124.444C113.195 124.444 113.195 124.444 113.195 124.444C113.195 124.444 113.195 124.444 113.195 124.444C113.195 124.444 113.195 124.444 113.195 124.444C113.195 124.444 113.195 124.444 113.195 124.444C113.195 124.444 113.195 124.444 113.195 124.444C113.195 124.444 113.195 124.444 113.195 124.444C113.195 124.444 113.195 124.444 113.195 124.444C113.195 124.444 113.195 124.444 113.195 124.444C113.195 124.444 113.195 124.444 113.195 124.444C113.195 124.444 113.195 124.444 113.195 124.444C113.195 124.444 113.195 124.444 113.195 124.444C113.195 124.444 113.195 124.444 113.195 124.444C113.195 124.444 113.195 124.444 113.195 124.444C113.195 124.444 113.195 124.444 113.195 124.444C113.195 124.444 113.195 124.444 113.195 124.444C113.195 124.444 113.195 124.444 113.195 124.444C113.195 124.444 113.195 124.444 113.195 124.444C113.195 124.444 113.195 124.444 113.195 124.444C113.195 124.444 113.195 124.444 113.195 124.444C113.195 124.444 113.195 124.444 113.195 124.444C113.195 124.444 113.195 124.444 113.195 124.444C113.195 124.444 113.195 124.444 113.195 124.444C113.195 124.444 113.195 124.444 113.195 124.444C113.195 124.444 113.195 124.444 113.195 124.444C113.195 124.444 113.195 124.444 113.195 124.444C113.195 124.444 113.195 124.444 113.195 124.444C113.195 124.444 113.195 124.444 113.195 124.444C113.195 124.444 113.195 124.444 113.195 124.444C113.195 124.444 113.195 124.444 113.195 124.444C113.195 124.444 113.195 124.444 113.195 124.444C113.195 124.444 113.195 124.444 113.195 124.444C113.195 124.444 113.195 124.444 113.195 124.444C113.195 124.444 113.195 124.444 113.195 124.444C113.195 124.444 113.195 124.444 113.195 124.444C113.195 124.444 113.195 124.444 113.195 124.444C113.195 124.444 113.195 124.444 113.195 124.444C113.195 124.444 113.195 124.444 113.195 124.444C113.195 124.444 113.195 124.444 113.195 124.444C113.195 124.444 113.195 124.444 113.195 124.444C113.195 124.444 113.195 124.444 113.195 124.444C113.195 124.444 113.195 124.444 113.195 124.444C113.195 124.444 113.195 124.444 113.195 124.444C113.195 124.444 113.195 124.444 113.195 124.444C113.195 124.444 113.195 124.444 113.195 124.444C113.195 124.444 113.195 124.444 113.195 124.444C113.195 124.444 113.195 124.444 113.195 124.444C113.195 124.444 113.195 124.444 113.195 124.444C113.195 124.444 113.195 124.444 113.195 124.444C113.195 124.444 113.195 124.444 113.195 124.444C113.195 124.444 113.195 124.444 113.195 124.444C113.195 124.445 113.195 124.445 113.195 124.445C113.195 124.445 113.195 124.445 113.195 124.445C113.195 124.445 113.195 124.445 113.195 124.445C113.195 124.445 113.195 124.445 113.195 124.445C113.195 124.445 113.195 124.445 113.195 124.445C113.195 124.445 113.195 124.445 113.195 124.445C113.195 124.445 113.195 124.445 113.195 124.445L114.609 125.859C114.609 125.859 114.609 125.859 114.609 125.859C114.609 125.859 114.609 125.859 114.609 125.859C114.609 125.859 114.609 125.859 114.609 125.859C114.609 125.859 114.609 125.859 114.609 125.859C114.609 125.859 114.609 125.859 114.609 125.859C114.609 125.859 114.609 125.859 114.609 125.859C114.609 125.859 114.609 125.859 114.609 125.859C114.609 125.859 114.609 125.859 114.609 125.859C114.609 125.859 114.609 125.859 114.609 125.859C114.609 125.859 114.609 125.859 114.609 125.859C114.609 125.859 114.609 125.859 114.609 125.859C114.609 125.859 114.609 125.859 114.609 125.859C114.609 125.859 114.609 125.859 114.609 125.859C114.609 125.859 114.609 125.859 114.609 125.859C114.609 125.859 114.609 125.859 114.609 125.859C114.609 125.859 114.609 125.859 114.609 125.859C114.609 125.859 114.609 125.859 114.609 125.859C114.609 125.859 114.609 125.859 114.609 125.859C114.609 125.859 114.609 125.859 114.609 125.859C114.609 125.859 114.609 125.859 114.609 125.859C114.609 125.859 114.609 125.859 114.609 125.859C114.609 125.859 114.609 125.859 114.609 125.859C114.609 125.859 114.609 125.859 114.609 125.859C114.609 125.859 114.609 125.859 114.609 125.859C114.609 125.859 114.609 125.859 114.609 125.859C114.609 125.859 114.609 125.859 114.609 125.859C114.609 125.859 114.609 125.859 114.609 125.859C114.609 125.859 114.609 125.859 114.609 125.859C114.609 125.859 114.609 125.859 114.609 125.859C114.609 125.859 114.609 125.859 114.609 125.859C114.609 125.859 114.609 125.859 114.609 125.859C114.609 125.859 114.609 125.859 114.609 125.859C114.609 125.859 114.609 125.859 114.609 125.859C114.609 125.859 114.609 125.859 114.609 125.859C114.609 125.859 114.609 125.859 114.609 125.859C114.609 125.859 114.609 125.859 114.609 125.859C114.609 125.859 114.609 125.859 114.609 125.859C114.609 125.859 114.609 125.859 114.609 125.859C114.609 125.859 114.609 125.859 114.609 125.859C114.609 125.859 114.609 125.859 114.609 125.859C114.609 125.859 114.609 125.859 114.609 125.858C114.609 125.858 114.609 125.858 114.609 125.858C114.609 125.858 114.609 125.858 114.609 125.858C114.609 125.858 114.609 125.858 114.609 125.858C114.609 125.858 114.609 125.858 114.609 125.858C114.609 125.858 114.609 125.858 114.609 125.858C114.609 125.858 114.609 125.858 114.609 125.858C114.609 125.858 114.609 125.858 114.609 125.858C114.609 125.858 114.609 125.858 114.609 125.858C114.609 125.858 114.609 125.858 114.609 125.858C114.609 125.858 114.609 125.858 114.609 125.858C114.609 125.858 114.609 125.858 114.609 125.858C114.609 125.858 114.609 125.858 114.609 125.858C114.609 125.858 114.609 125.858 114.609 125.858C114.609 125.858 114.609 125.858 114.609 125.858C114.609 125.858 114.609 125.858 114.609 125.858C114.609 125.858 114.609 125.858 114.609 125.858C114.609 125.858 114.609 125.858 114.609 125.858C114.609 125.858 114.609 125.858 114.609 125.858C114.609 125.858 114.609 125.858 114.609 125.858C114.609 125.858 114.609 125.858 114.609 125.858C114.609 125.858 114.609 125.858 114.609 125.858C114.609 125.858 114.609 125.858 114.609 125.858C114.609 125.858 114.609 125.858 114.609 125.858C114.609 125.858 114.609 125.858 114.609 125.858C114.609 125.858 114.609 125.858 114.609 125.858C114.609 125.858 114.609 125.858 114.609 125.858C114.609 125.858 114.609 125.858 114.609 125.858C114.609 125.858 114.609 125.858 114.609 125.858C114.609 125.858 114.609 125.858 114.609 125.858C114.609 125.858 114.609 125.858 114.609 125.858C114.609 125.858 114.609 125.858 114.609 125.858C114.609 125.858 114.609 125.858 114.609 125.858C114.609 125.858 114.609 125.858 114.609 125.858C114.609 125.858 114.609 125.858 114.609 125.858C114.609 125.858 114.609 125.858 114.609 125.858C114.609 125.858 114.609 125.858 114.609 125.858C114.609 125.858 114.609 125.858 114.609 125.858C114.609 125.858 114.609 125.858 114.609 125.858C114.609 125.858 114.609 125.858 114.609 125.858C114.609 125.858 114.609 125.858 114.609 125.858C114.609 125.858 114.609 125.858 114.609 125.858C114.609 125.858 114.609 125.858 114.609 125.858C114.609 125.858 114.609 125.858 114.609 125.858C114.609 125.858 114.609 125.858 114.609 125.858C114.609 125.858 114.609 125.858 114.609 125.858C114.609 125.858 114.609 125.858 114.609 125.858C114.609 125.858 114.609 125.858 114.609 125.858C114.609 125.858 114.609 125.858 114.609 125.858C114.609 125.858 114.609 125.858 114.609 125.858C114.609 125.858 114.609 125.858 114.609 125.858C114.609 125.858 114.609 125.858 114.609 125.858C114.609 125.858 114.609 125.858 114.609 125.858C114.609 125.858 114.609 125.858 114.609 125.858C114.609 125.858 114.609 125.858 114.609 125.858C114.609 125.858 114.609 125.858 114.609 125.858C114.609 125.858 114.609 125.858 114.609 125.858C114.609 125.858 114.609 125.858 114.609 125.858C114.609 125.858 114.609 125.858 114.609 125.858C114.609 125.858 114.609 125.858 114.609 125.858C114.609 125.858 114.609 125.858 114.609 125.858C114.609 125.858 114.609 125.858 114.609 125.858C114.609 125.858 114.609 125.858 114.609 125.858C114.609 125.858 114.609 125.858 114.609 125.858C114.609 125.858 114.609 125.858 114.609 125.858C114.609 125.858 114.609 125.858 114.609 125.858C114.609 125.858 114.609 125.858 114.609 125.858C114.609 125.858 114.609 125.858 114.609 125.858C114.609 125.858 114.609 125.858 114.609 125.858C114.609 125.858 114.609 125.858 114.609 125.858C114.609 125.858 114.609 125.858 114.609 125.858C114.609 125.858 114.609 125.858 114.609 125.858C114.609 125.858 114.609 125.858 114.609 125.858C114.609 125.858 114.609 125.858 114.609 125.858C114.609 125.858 114.609 125.858 114.609 125.858C114.609 125.858 114.609 125.858 114.609 125.858C114.609 125.858 114.609 125.858 114.609 125.858C114.609 125.858 114.609 125.858 114.609 125.858C114.61 125.858 114.61 125.858 114.61 125.858C114.61 125.858 114.61 125.858 114.61 125.858C114.61 125.858 114.61 125.858 114.61 125.858C114.61 125.858 114.61 125.858 114.61 125.858C114.61 125.858 114.61 125.858 114.61 125.858C114.61 125.858 114.61 125.858 114.61 125.858C114.61 125.858 114.61 125.858 114.61 125.858C114.61 125.858 114.61 125.858 114.61 125.858C114.61 125.858 114.61 125.858 114.61 125.858C114.61 125.858 114.61 125.858 114.61 125.858C114.61 125.858 114.61 125.858 114.61 125.858C114.61 125.858 114.61 125.858 114.61 125.858C114.61 125.858 114.61 125.858 114.61 125.858C114.61 125.858 114.61 125.858 114.61 125.858C114.61 125.858 114.61 125.858 114.61 125.858C114.61 125.858 114.61 125.858 114.61 125.858C114.61 125.858 114.61 125.858 114.61 125.858C114.61 125.858 114.61 125.858 114.61 125.858C114.61 125.858 114.61 125.858 114.61 125.858C114.61 125.858 114.61 125.858 114.61 125.858C114.61 125.858 114.61 125.858 114.61 125.858C114.61 125.858 114.61 125.858 114.61 125.858C114.61 125.858 114.61 125.858 114.61 125.858C114.61 125.858 114.61 125.858 114.61 125.858C114.61 125.858 114.61 125.858 114.61 125.858C114.61 125.858 114.61 125.858 114.61 125.858C114.61 125.858 114.61 125.858 114.61 125.858C114.61 125.858 114.61 125.858 114.61 125.858C114.61 125.858 114.61 125.858 114.61 125.858C114.61 125.858 114.61 125.858 114.61 125.858C114.61 125.858 114.61 125.858 114.61 125.858C114.61 125.858 114.61 125.858 114.61 125.858C114.61 125.858 114.61 125.858 114.61 125.858C114.61 125.858 114.61 125.858 114.61 125.858C114.61 125.858 114.61 125.858 114.61 125.858C114.61 125.858 114.61 125.858 114.61 125.858C114.61 125.858 114.61 125.858 114.61 125.858C114.61 125.858 114.61 125.858 114.61 125.858C114.61 125.858 114.61 125.858 114.61 125.858C114.61 125.858 114.61 125.858 114.61 125.858C114.61 125.858 114.61 125.858 114.61 125.858C114.61 125.858 114.61 125.858 114.61 125.858C114.61 125.858 114.61 125.858 114.61 125.858C114.61 125.858 114.61 125.858 114.61 125.858C114.61 125.858 114.61 125.858 114.61 125.858C114.61 125.858 114.61 125.858 114.61 125.858C114.61 125.858 114.61 125.858 114.61 125.858C114.61 125.858 114.61 125.858 114.61 125.858C114.61 125.858 114.61 125.858 114.61 125.858C114.61 125.858 114.61 125.858 114.61 125.858C114.61 125.858 114.61 125.858 114.61 125.858C114.61 125.858 114.61 125.858 114.61 125.858C114.61 125.858 114.61 125.858 114.61 125.858C114.61 125.858 114.61 125.858 114.61 125.858C114.61 125.858 114.61 125.858 114.61 125.858C114.61 125.858 114.61 125.858 114.61 125.858C114.61 125.858 114.61 125.858 114.61 125.858C114.61 125.858 114.61 125.858 114.61 125.858C114.61 125.858 114.61 125.858 114.61 125.858C114.61 125.858 114.61 125.858 114.61 125.858C114.61 125.858 114.61 125.858 114.61 125.858C114.61 125.858 114.61 125.858 114.61 125.858C114.61 125.858 114.61 125.858 114.61 125.858C114.61 125.858 114.61 125.858 114.61 125.858C114.61 125.858 114.61 125.858 114.61 125.858C114.61 125.858 114.61 125.858 114.61 125.858C114.61 125.858 114.61 125.858 114.61 125.858C114.61 125.858 114.61 125.858 114.61 125.858C114.61 125.858 114.61 125.858 114.61 125.858C114.61 125.858 114.61 125.858 114.61 125.858C114.61 125.858 114.61 125.858 114.61 125.858C114.61 125.858 114.61 125.858 114.61 125.858C114.61 125.858 114.61 125.858 114.61 125.858C114.61 125.858 114.61 125.858 114.61 125.858C114.61 125.858 114.61 125.858 114.61 125.858C114.61 125.858 114.61 125.858 114.61 125.858C114.61 125.858 114.61 125.858 114.61 125.858C114.61 125.858 114.61 125.858 114.61 125.858C114.61 125.858 114.61 125.858 114.61 125.858C114.61 125.858 114.61 125.858 114.61 125.858C114.61 125.858 114.61 125.858 114.61 125.858C114.61 125.858 114.61 125.858 114.61 125.857C114.61 125.857 114.61 125.857 114.61 125.857C114.61 125.857 114.61 125.857 114.61 125.857C114.61 125.857 114.61 125.857 114.61 125.857C114.61 125.857 114.61 125.857 114.61 125.857C114.61 125.857 114.61 125.857 114.61 125.857C114.61 125.857 114.61 125.857 114.61 125.857C114.61 125.857 114.61 125.857 114.61 125.857C114.61 125.857 114.61 125.857 114.61 125.857C114.61 125.857 114.61 125.857 114.61 125.857C114.61 125.857 114.61 125.857 114.61 125.857C114.61 125.857 114.61 125.857 114.61 125.857C114.61 125.857 114.61 125.857 114.61 125.857C114.61 125.857 114.61 125.857 114.61 125.857C114.61 125.857 114.61 125.857 114.61 125.857C114.61 125.857 114.61 125.857 114.61 125.857C114.61 125.857 114.61 125.857 114.61 125.857C114.61 125.857 114.61 125.857 114.61 125.857C114.61 125.857 114.61 125.857 114.61 125.857C114.61 125.857 114.61 125.857 114.61 125.857C114.61 125.857 114.61 125.857 114.61 125.857C114.61 125.857 114.61 125.857 114.61 125.857C114.61 125.857 114.61 125.857 114.61 125.857C114.61 125.857 114.61 125.857 114.61 125.857C114.61 125.857 114.61 125.857 114.61 125.857C114.61 125.857 114.61 125.857 114.61 125.857C114.61 125.857 114.61 125.857 114.61 125.857C114.61 125.857 114.61 125.857 114.61 125.857C114.61 125.857 114.61 125.857 114.61 125.857C114.61 125.857 114.61 125.857 114.61 125.857C114.61 125.857 114.61 125.857 114.61 125.857C114.61 125.857 114.61 125.857 114.61 125.857C114.61 125.857 114.61 125.857 114.61 125.857C114.61 125.857 114.61 125.857 114.61 125.857C114.61 125.857 114.61 125.857 114.61 125.857C114.61 125.857 114.61 125.857 114.61 125.857C114.61 125.857 114.61 125.857 114.61 125.857C114.61 125.857 114.61 125.857 114.61 125.857C114.61 125.857 114.61 125.857 114.61 125.857C114.61 125.857 114.61 125.857 114.61 125.857C114.61 125.857 114.61 125.857 114.61 125.857C114.61 125.857 114.61 125.857 114.61 125.857C114.61 125.857 114.61 125.857 114.61 125.857C114.61 125.857 114.61 125.857 114.61 125.857C114.61 125.857 114.61 125.857 114.61 125.857C114.61 125.857 114.61 125.857 114.61 125.857C114.61 125.857 114.61 125.857 114.61 125.857C114.61 125.857 114.61 125.857 114.61 125.857C114.61 125.857 114.61 125.857 114.61 125.857C114.61 125.857 114.61 125.857 114.61 125.857C114.61 125.857 114.61 125.857 114.61 125.857C114.61 125.857 114.61 125.857 114.61 125.857C114.61 125.857 114.61 125.857 114.61 125.857C114.61 125.857 114.61 125.857 114.61 125.857C114.61 125.857 114.61 125.857 114.61 125.857C114.61 125.857 114.61 125.857 114.61 125.857C114.61 125.857 114.61 125.857 114.61 125.857C114.61 125.857 114.61 125.857 114.61 125.857C114.61 125.857 114.61 125.857 114.61 125.857C114.61 125.857 114.61 125.857 114.61 125.857C114.61 125.857 114.61 125.857 114.61 125.857C114.61 125.857 114.61 125.857 114.61 125.857C114.61 125.857 114.61 125.857 114.61 125.857C114.61 125.857 114.61 125.857 114.61 125.857C114.61 125.857 114.61 125.857 114.61 125.857C114.61 125.857 114.61 125.857 114.61 125.857C114.61 125.857 114.61 125.857 114.61 125.857C114.61 125.857 114.61 125.857 114.61 125.857C114.61 125.857 114.61 125.857 114.61 125.857C114.61 125.857 114.61 125.857 114.61 125.857C114.61 125.857 114.61 125.857 114.61 125.857C114.61 125.857 114.61 125.857 114.61 125.857C114.61 125.857 114.61 125.857 114.61 125.857C114.61 125.857 114.61 125.857 114.61 125.857C114.61 125.857 114.61 125.857 114.61 125.857C114.61 125.857 114.61 125.857 114.61 125.857C114.61 125.857 114.61 125.857 114.61 125.857C114.61 125.857 114.61 125.857 114.61 125.857C114.611 125.857 114.611 125.857 114.611 125.857C114.611 125.857 114.611 125.857 114.611 125.857C114.611 125.857 114.611 125.857 114.611 125.857C114.611 125.857 114.611 125.857 114.611 125.857C114.611 125.857 114.611 125.857 114.611 125.857C114.611 125.857 114.611 125.857 114.611 125.857C114.611 125.857 114.611 125.857 114.611 125.857C114.611 125.857 114.611 125.857 114.611 125.857C114.611 125.857 114.611 125.857 114.611 125.857C114.611 125.857 114.611 125.857 114.611 125.857C114.611 125.857 114.611 125.857 114.611 125.857C114.611 125.857 114.611 125.857 114.611 125.857C114.611 125.857 114.611 125.857 114.611 125.857C114.611 125.857 114.611 125.857 114.611 125.857C114.611 125.857 114.611 125.857 114.611 125.857C114.611 125.857 114.611 125.857 114.611 125.857C114.611 125.857 114.611 125.857 114.611 125.857C114.611 125.857 114.611 125.857 114.611 125.857C114.611 125.857 114.611 125.857 114.611 125.857C114.611 125.857 114.611 125.857 114.611 125.857C114.611 125.857 114.611 125.857 114.611 125.857C114.611 125.857 114.611 125.857 114.611 125.857C114.611 125.857 114.611 125.857 114.611 125.857C114.611 125.857 114.611 125.857 114.611 125.857C114.611 125.857 114.611 125.857 114.611 125.857C114.611 125.857 114.611 125.857 114.611 125.857C114.611 125.857 114.611 125.857 114.611 125.857C114.611 125.857 114.611 125.857 114.611 125.857C114.611 125.857 114.611 125.857 114.611 125.857C114.611 125.857 114.611 125.857 114.611 125.857C114.611 125.857 114.611 125.857 114.611 125.857C114.611 125.857 114.611 125.857 114.611 125.857C114.611 125.857 114.611 125.857 114.611 125.857C114.611 125.857 114.611 125.857 114.611 125.857C114.611 125.857 114.611 125.857 114.611 125.857C114.611 125.857 114.611 125.857 114.611 125.857C114.611 125.857 114.611 125.857 114.611 125.857C114.611 125.857 114.611 125.857 114.611 125.857C114.611 125.857 114.611 125.857 114.611 125.857C114.611 125.857 114.611 125.857 114.611 125.857C114.611 125.857 114.611 125.857 114.611 125.857C114.611 125.857 114.611 125.857 114.611 125.857C114.611 125.857 114.611 125.857 114.611 125.857C114.611 125.857 114.611 125.857 114.611 125.857C114.611 125.857 114.611 125.857 114.611 125.857C114.611 125.857 114.611 125.857 114.611 125.857C114.611 125.857 114.611 125.857 114.611 125.857C114.611 125.857 114.611 125.857 114.611 125.857C114.611 125.857 114.611 125.857 114.611 125.857C114.611 125.857 114.611 125.857 114.611 125.857C114.611 125.857 114.611 125.857 114.611 125.857C114.611 125.857 114.611 125.857 114.611 125.857C114.611 125.857 114.611 125.857 114.611 125.857C114.611 125.857 114.611 125.857 114.611 125.857C114.611 125.857 114.611 125.857 114.611 125.857C114.611 125.857 114.611 125.857 114.611 125.857C114.611 125.857 114.611 125.857 114.611 125.857C114.611 125.857 114.611 125.857 114.611 125.857C114.611 125.857 114.611 125.857 114.611 125.857C114.611 125.857 114.611 125.857 114.611 125.857C114.611 125.857 114.611 125.857 114.611 125.857C114.611 125.857 114.611 125.857 114.611 125.857C114.611 125.857 114.611 125.857 114.611 125.857C114.611 125.857 114.611 125.857 114.611 125.857C114.611 125.857 114.611 125.857 114.611 125.857C114.611 125.857 114.611 125.857 114.611 125.857C114.611 125.857 114.611 125.857 114.611 125.857C114.611 125.857 114.611 125.857 114.611 125.857C114.611 125.857 114.611 125.857 114.611 125.857C114.611 125.857 114.611 125.857 114.611 125.857C114.611 125.857 114.611 125.857 114.611 125.857C114.611 125.857 114.611 125.857 114.611 125.857C114.611 125.857 114.611 125.857 114.611 125.857C114.611 125.857 114.611 125.857 114.611 125.857C114.611 125.857 114.611 125.857 114.611 125.857C114.611 125.857 114.611 125.857 114.611 125.857C114.611 125.857 114.611 125.857 114.611 125.857C114.611 125.857 114.611 125.857 114.611 125.857C114.611 125.857 114.611 125.857 114.611 125.857C114.611 125.857 114.611 125.857 114.611 125.857C114.611 125.857 114.611 125.857 114.611 125.857C114.611 125.857 114.611 125.857 114.611 125.856C114.611 125.856 114.611 125.856 114.611 125.856C114.611 125.856 114.611 125.856 114.611 125.856C114.611 125.856 114.611 125.856 114.611 125.856C114.611 125.856 114.611 125.856 114.611 125.856C114.611 125.856 114.611 125.856 114.611 125.856C114.611 125.856 114.611 125.856 114.611 125.856C114.611 125.856 114.611 125.856 114.611 125.856C114.611 125.856 114.611 125.856 114.611 125.856C114.611 125.856 114.611 125.856 114.611 125.856C114.611 125.856 114.611 125.856 114.611 125.856C114.611 125.856 114.611 125.856 114.611 125.856C114.611 125.856 114.611 125.856 114.611 125.856C114.611 125.856 114.611 125.856 114.611 125.856C114.611 125.856 114.611 125.856 114.611 125.856C114.611 125.856 114.611 125.856 114.611 125.856C114.611 125.856 114.611 125.856 114.611 125.856C114.611 125.856 114.611 125.856 114.611 125.856C114.611 125.856 114.611 125.856 114.611 125.856C114.611 125.856 114.611 125.856 114.611 125.856C114.611 125.856 114.611 125.856 114.611 125.856C114.611 125.856 114.611 125.856 114.611 125.856C114.611 125.856 114.611 125.856 114.611 125.856C114.611 125.856 114.611 125.856 114.611 125.856C114.611 125.856 114.611 125.856 114.611 125.856C114.611 125.856 114.611 125.856 114.611 125.856C114.611 125.856 114.611 125.856 114.611 125.856C114.611 125.856 114.611 125.856 114.611 125.856C114.611 125.856 114.611 125.856 114.611 125.856C114.611 125.856 114.611 125.856 114.611 125.856C114.611 125.856 114.611 125.856 114.611 125.856C114.611 125.856 114.611 125.856 114.611 125.856C114.611 125.856 114.611 125.856 114.611 125.856C114.611 125.856 114.611 125.856 114.611 125.856C114.611 125.856 114.611 125.856 114.611 125.856C114.611 125.856 114.611 125.856 114.611 125.856C114.611 125.856 114.611 125.856 114.611 125.856C114.611 125.856 114.611 125.856 114.611 125.856C114.611 125.856 114.611 125.856 114.611 125.856C114.611 125.856 114.611 125.856 114.611 125.856C114.611 125.856 114.611 125.856 114.611 125.856C114.611 125.856 114.611 125.856 114.611 125.856C114.611 125.856 114.611 125.856 114.611 125.856C114.611 125.856 114.611 125.856 114.611 125.856C114.611 125.856 114.611 125.856 114.611 125.856C114.611 125.856 114.611 125.856 114.611 125.856C114.611 125.856 114.611 125.856 114.611 125.856C114.611 125.856 114.611 125.856 114.611 125.856C114.611 125.856 114.611 125.856 114.611 125.856C114.611 125.856 114.611 125.856 114.611 125.856C114.611 125.856 114.611 125.856 114.611 125.856C114.611 125.856 114.611 125.856 114.611 125.856C114.611 125.856 114.611 125.856 114.611 125.856C114.611 125.856 114.611 125.856 114.611 125.856C114.611 125.856 114.611 125.856 114.611 125.856C114.611 125.856 114.611 125.856 114.611 125.856C114.611 125.856 114.611 125.856 114.611 125.856C114.611 125.856 114.611 125.856 114.611 125.856C114.611 125.856 114.611 125.856 114.611 125.856C114.611 125.856 114.611 125.856 114.611 125.856C114.611 125.856 114.611 125.856 114.611 125.856C114.611 125.856 114.611 125.856 114.611 125.856C114.611 125.856 114.611 125.856 114.611 125.856C114.611 125.856 114.611 125.856 114.611 125.856C114.611 125.856 114.611 125.856 114.611 125.856C114.611 125.856 114.611 125.856 114.611 125.856C114.611 125.856 114.611 125.856 114.611 125.856C114.611 125.856 114.611 125.856 114.611 125.856C114.611 125.856 114.611 125.856 114.611 125.856C114.611 125.856 114.611 125.856 114.611 125.856C114.611 125.856 114.611 125.856 114.611 125.856C114.611 125.856 114.611 125.856 114.611 125.856C114.611 125.856 114.611 125.856 114.611 125.856C114.611 125.856 114.611 125.856 114.611 125.856C114.611 125.856 114.611 125.856 114.611 125.856C114.611 125.856 114.611 125.856 114.611 125.856C114.611 125.856 114.611 125.856 114.611 125.856C114.611 125.856 114.611 125.856 114.611 125.856C114.611 125.856 114.612 125.856 114.612 125.856C114.612 125.856 114.612 125.856 114.612 125.856C114.612 125.856 114.612 125.856 114.612 125.856C114.612 125.856 114.612 125.856 114.612 125.856C114.612 125.856 114.612 125.856 114.612 125.856C114.612 125.856 114.612 125.856 114.612 125.856C114.612 125.856 114.612 125.856 114.612 125.856C114.612 125.856 114.612 125.856 114.612 125.856C114.612 125.856 114.612 125.856 114.612 125.856C114.612 125.856 114.612 125.856 114.612 125.856C114.612 125.856 114.612 125.856 114.612 125.856C114.612 125.856 114.612 125.856 114.612 125.856C114.612 125.856 114.612 125.856 114.612 125.856C114.612 125.856 114.612 125.856 114.612 125.856C114.612 125.856 114.612 125.856 114.612 125.856C114.612 125.856 114.612 125.856 114.612 125.856C114.612 125.856 114.612 125.856 114.612 125.856C114.612 125.856 114.612 125.856 114.612 125.856C114.612 125.856 114.612 125.856 114.612 125.856C114.612 125.856 114.612 125.856 114.612 125.856C114.612 125.856 114.612 125.856 114.612 125.856C114.612 125.856 114.612 125.856 114.612 125.856C114.612 125.856 114.612 125.856 114.612 125.856C114.612 125.856 114.612 125.856 114.612 125.856C114.612 125.856 114.612 125.856 114.612 125.856C114.612 125.856 114.612 125.856 114.612 125.856C114.612 125.856 114.612 125.856 114.612 125.856C114.612 125.856 114.612 125.856 114.612 125.856C114.612 125.856 114.612 125.856 114.612 125.856C114.612 125.856 114.612 125.856 114.612 125.856C114.612 125.856 114.612 125.856 114.612 125.856C114.612 125.856 114.612 125.856 114.612 125.856C114.612 125.856 114.612 125.856 114.612 125.856C114.612 125.856 114.612 125.856 114.612 125.856C114.612 125.856 114.612 125.856 114.612 125.856C114.612 125.856 114.612 125.856 114.612 125.856C114.612 125.856 114.612 125.856 114.612 125.856C114.612 125.856 114.612 125.856 114.612 125.856C114.612 125.856 114.612 125.856 114.612 125.856C114.612 125.856 114.612 125.856 114.612 125.856C114.612 125.856 114.612 125.856 114.612 125.856C114.612 125.856 114.612 125.856 114.612 125.856C114.612 125.856 114.612 125.856 114.612 125.856C114.612 125.856 114.612 125.856 114.612 125.856C114.612 125.856 114.612 125.856 114.612 125.856C114.612 125.856 114.612 125.856 114.612 125.856C114.612 125.856 114.612 125.856 114.612 125.856C114.612 125.856 114.612 125.856 114.612 125.856C114.612 125.856 114.612 125.856 114.612 125.856C114.612 125.856 114.612 125.856 114.612 125.856C114.612 125.856 114.612 125.856 114.612 125.856C114.612 125.856 114.612 125.856 114.612 125.856C114.612 125.856 114.612 125.856 114.612 125.856C114.612 125.856 114.612 125.856 114.612 125.856C114.612 125.856 114.612 125.856 114.612 125.856C114.612 125.856 114.612 125.856 114.612 125.856C114.612 125.856 114.612 125.856 114.612 125.856C114.612 125.856 114.612 125.856 114.612 125.856C114.612 125.856 114.612 125.856 114.612 125.856C114.612 125.856 114.612 125.856 114.612 125.856C114.612 125.856 114.612 125.856 114.612 125.856C114.612 125.856 114.612 125.856 114.612 125.856C114.612 125.856 114.612 125.856 114.612 125.856C114.612 125.856 114.612 125.856 114.612 125.856C114.612 125.856 114.612 125.856 114.612 125.856C114.612 125.856 114.612 125.856 114.612 125.856C114.612 125.856 114.612 125.856 114.612 125.856C114.612 125.856 114.612 125.856 114.612 125.856C114.612 125.856 114.612 125.856 114.612 125.856C114.612 125.856 114.612 125.856 114.612 125.856C114.612 125.856 114.612 125.856 114.612 125.856C114.612 125.856 114.612 125.856 114.612 125.856C114.612 125.856 114.612 125.856 114.612 125.856C114.612 125.856 114.612 125.856 114.612 125.856C114.612 125.856 114.612 125.856 114.612 125.856C114.612 125.856 114.612 125.856 114.612 125.856L113.198 124.441ZM113.195 124.445C113.195 124.444 113.195 124.444 113.194 124.445C113.194 124.445 113.193 124.446 113.191 124.448L114.606 125.862C114.605 125.862 114.605 125.862 114.606 125.862C114.606 125.861 114.607 125.86 114.609 125.859L113.195 124.445ZM103.359 137.109L114.606 125.862L113.191 124.448L101.945 135.695L103.359 137.109ZM96.6412 137.109C98.4962 138.964 101.504 138.964 103.359 137.109L101.945 135.695C100.871 136.768 99.1294 136.768 98.0555 135.695L96.6412 137.109ZM70.4135 110.881L96.6412 137.109L98.0555 135.695L71.8277 109.467L70.4135 110.881ZM57.75 86.875C57.75 97.6376 64.7772 105.43 70.4254 110.893L71.8158 109.455C66.1809 104.005 59.75 96.7329 59.75 86.875H57.75ZM65.1822 68.9322C60.4234 73.6909 57.75 80.1451 57.75 86.875H59.75C59.75 80.6756 62.2127 74.73 66.5964 70.3464L65.1822 68.9322ZM105.695 113.055L110.543 117.904L111.957 116.49L107.109 111.641L105.695 113.055ZM101.805 113.055C102.879 111.982 104.621 111.982 105.695 113.055L107.109 111.641C105.254 109.786 102.246 109.786 100.391 111.641L101.805 113.055ZM101.805 116.945C100.732 115.871 100.732 114.129 101.805 113.055L100.391 111.641C98.5362 113.496 98.5362 116.504 100.391 118.359L101.805 116.945ZM106.654 121.793L101.805 116.945L100.391 118.359L105.24 123.207L106.654 121.793ZM100.707 129.154L106.654 123.207L105.24 121.793L99.2929 127.74L100.707 129.154ZM75.6945 105.555L99.2929 129.154L100.707 127.74L77.1088 104.141L75.6945 105.555ZM75.6616 105.523C75.6724 105.534 75.6834 105.544 75.6945 105.555L77.1088 104.141C77.0899 104.122 77.0707 104.104 77.0511 104.085L75.6616 105.523ZM65.25 86.875C65.25 94.2542 70.0525 100.101 75.6613 105.523L77.0514 104.085C71.4527 98.6728 67.25 93.3472 67.25 86.875H65.25ZM70.4855 74.2355C67.1332 77.5877 65.25 82.1343 65.25 86.875H67.25C67.25 82.6647 68.9225 78.6268 71.8997 75.6497L70.4855 74.2355ZM83.125 69C78.3843 69 73.8377 70.8832 70.4855 74.2355L71.8997 75.6497C74.8768 72.6725 78.9147 71 83.125 71V69ZM90.83 70.4119C88.5688 69.427 86.1496 69 83.125 69V71C85.9491 71 88.0823 71.3966 90.0314 72.2455L90.83 70.4119ZM95.1877 73.1054C93.6726 71.8965 92.2484 71.0296 90.83 70.4119L90.0314 72.2455C91.2656 72.7831 92.5408 73.5521 93.9403 74.6688L95.1877 73.1054ZM86.9642 82.9011L95.2711 74.5942L93.8569 73.18L85.55 81.4869L86.9642 82.9011ZM84.5864 86.4402C85.1376 85.1163 85.945 83.9142 86.9621 82.9032L85.5521 81.4848C84.3482 82.6815 83.3925 84.1043 82.74 85.6715L84.5864 86.4402ZM83.75 90.625C83.75 89.1886 84.0342 87.7663 84.5864 86.4402L82.74 85.6715C82.0865 87.2412 81.75 88.9247 81.75 90.625H83.75ZM84.5864 94.8098C84.0342 93.4837 83.75 92.0614 83.75 90.625H81.75C81.75 92.3253 82.0865 94.0088 82.74 95.5785L84.5864 94.8098ZM86.9625 98.3472C85.9452 97.3361 85.1377 96.1339 84.5864 94.8098L82.74 95.5785C83.3926 97.1459 84.3484 98.5689 85.5526 99.7657L86.9625 98.3472ZM101.99 98.7101C97.6565 102.595 91.0863 102.466 86.9643 98.3489L85.5508 99.7639C90.4354 104.643 98.213 104.783 103.325 100.199L101.99 98.7101ZM102.018 98.6845L101.986 98.714L103.33 100.195L103.362 100.166L102.018 98.6845ZM109.768 91.5714L102.014 98.6885L103.366 100.162L111.12 93.0448L109.768 91.5714ZM115.023 89.544C113.083 89.544 111.212 90.2649 109.773 91.5666L111.115 93.0496C112.186 92.0806 113.579 91.544 115.023 91.544V89.544ZM120.281 91.574C118.842 90.2677 116.967 89.544 115.023 89.544V91.544C116.47 91.544 117.866 92.0827 118.937 93.0552L120.281 91.574ZM120.293 91.5847L120.28 91.5725L118.939 93.0567L118.953 93.0688L120.293 91.5847ZM128.817 99.2442L120.291 91.5829L118.954 93.0705L127.48 100.732L128.817 99.2442ZM124.325 105.536C125.964 103.93 127.526 102.302 128.918 100.627L127.379 99.3492C126.048 100.952 124.539 102.527 122.926 104.107L124.325 105.536ZM124.302 105.559L124.329 105.532L122.922 104.111L122.895 104.138L124.302 105.559ZM123.207 106.654L124.305 105.555L122.891 104.141L121.793 105.24L123.207 106.654ZM116.945 101.805L121.793 106.654L123.207 105.24L118.359 100.391L116.945 101.805ZM113.055 101.805C114.129 100.732 115.871 100.732 116.945 101.805L118.359 100.391C116.504 98.5362 113.496 98.5362 111.641 100.391L113.055 101.805ZM113.055 105.695C111.982 104.621 111.982 102.879 113.055 101.805L111.641 100.391C109.786 102.246 109.786 105.254 111.641 107.109L113.055 105.695ZM117.904 110.543L113.055 105.695L111.641 107.109L116.49 111.957L117.904 110.543ZM111.957 117.904L117.904 111.957L116.49 110.543L110.543 116.49L111.957 117.904ZM132.75 86.875C132.75 89.1003 132.244 91.1891 131.352 93.199L133.18 94.0107C134.17 91.7801 134.75 89.4158 134.75 86.875H132.75ZM128.1 75.6497C131.077 78.6268 132.75 82.6647 132.75 86.875H134.75C134.75 82.1343 132.867 77.5877 129.515 74.2355L128.1 75.6497ZM116.875 71C121.085 71 125.123 72.6725 128.1 75.6497L129.515 74.2355C126.162 70.8833 121.616 69 116.875 69V71ZM109.969 72.2455C111.918 71.3966 114.051 71 116.875 71V69C113.85 69 111.431 69.427 109.17 70.4119L109.969 72.2455ZM103.463 77.0045C105.958 74.527 108.016 73.0959 109.969 72.2455L109.17 70.4119C106.922 71.3908 104.663 72.9939 102.054 75.5855L103.463 77.0045ZM103.363 77.1088C103.407 77.0646 103.451 77.0197 103.493 76.9742L102.025 75.6158C102 75.6424 101.975 75.6686 101.949 75.6945L103.363 77.1088ZM92.2632 88.2088L103.363 77.1088L101.949 75.6945L90.849 86.7945L92.2632 88.2088ZM92.2535 88.2184L92.2632 88.2088L90.849 86.7945L90.8393 86.8042L92.2535 88.2184ZM91.5102 89.323C91.682 88.9104 91.9337 88.5359 92.2509 88.221L90.8419 86.8016C90.3374 87.3024 89.9371 87.898 89.6639 88.5542L91.5102 89.323ZM91.25 90.625C91.25 90.1781 91.3384 89.7356 91.5102 89.323L89.6639 88.5542C89.3907 89.2104 89.25 89.9142 89.25 90.625H91.25ZM91.5102 91.927C91.3384 91.5144 91.25 91.0719 91.25 90.625H89.25C89.25 91.3358 89.3907 92.0396 89.6639 92.6958L91.5102 91.927ZM92.2509 93.029C91.9337 92.7142 91.682 92.3396 91.5102 91.927L89.6639 92.6958C89.9371 93.352 90.3374 93.9476 90.8419 94.4484L92.2509 93.029ZM92.2604 93.0384L92.2507 93.0288L90.8421 94.4486L90.8518 94.4582L92.2604 93.0384ZM96.9725 93.1357C95.5639 94.3886 93.5273 94.3054 92.2632 93.0412L90.849 94.4554C92.8702 96.4767 96.1103 96.5793 98.3017 94.6301L96.9725 93.1357ZM104.705 86.0381L96.9609 93.1462L98.3133 94.6196L106.057 87.5115L104.705 86.0381ZM104.723 86.0218L104.707 86.0362L106.055 87.5134L106.071 87.499L104.723 86.0218ZM115.023 82.044C111.216 82.044 107.545 83.4613 104.725 86.0198L106.069 87.5009C108.521 85.2763 111.713 84.044 115.023 84.044V82.044ZM125.314 86.0127C122.495 83.4587 118.827 82.044 115.023 82.044V84.044C118.331 84.044 121.52 85.274 123.971 87.4948L125.314 86.0127ZM125.321 86.0194L125.314 86.0128L123.97 87.4947L123.978 87.5013L125.321 86.0194ZM132.934 92.8611L125.318 86.0166L123.981 87.5042L131.597 94.3487L132.934 92.8611Z" fill="#1A4A13" fill-opacity="0.4" mask="url(#path-1-inside-1_426_170)"/>
</g>
<defs>
<filter id="filter0_di_426_170" x="0" y="0" width="199" height="199" filterUnits="userSpaceOnUse" color-interpolation-filters="sRGB">
<feFlood flood-opacity="0" result="BackgroundImageFix"/>
<feColorMatrix in="SourceAlpha" type="matrix" values="0 0 0 0 0 0 0 0 0 0 0 0 0 0 0 0 0 0 127 0" result="hardAlpha"/>
<feOffset dy="2"/>
<feGaussianBlur stdDeviation="2"/>
<feComposite in2="hardAlpha" operator="out"/>
<feColorMatrix type="matrix" values="0 0 0 0 0 0 0 0 0 0 0 0 0 0 0 0 0 0 0.25 0"/>
<feBlend mode="normal" in2="BackgroundImageFix" result="effect1_dropShadow_426_170"/>
<feBlend mode="normal" in="SourceGraphic" in2="effect1_dropShadow_426_170" result="shape"/>
<feColorMatrix in="SourceAlpha" type="matrix" values="0 0 0 0 0 0 0 0 0 0 0 0 0 0 0 0 0 0 127 0" result="hardAlpha"/>
<feOffset dy="2"/>
<feGaussianBlur stdDeviation="1.5"/>
<feComposite in2="hardAlpha" operator="arithmetic" k2="-1" k3="1"/>
<feColorMatrix type="matrix" values="0 0 0 0 0 0 0 0 0 0 0 0 0 0 0 0 0 0 0.25 0"/>
<feBlend mode="normal" in2="shape" result="effect2_innerShadow_426_170"/>
</filter>
</defs>
</svg>
