<svg width="24" height="24" viewBox="0 0 24 24" fill="none" xmlns="http://www.w3.org/2000/svg">
<g clip-path="url(#clip0_96_289)">
<path d="M23.52 12.2728C23.52 11.4219 23.4436 10.6037 23.3018 9.81824H12V14.4655H18.4582C18.1745 15.9601 17.3236 17.2255 16.0473 18.0764V21.0982H19.9418C22.2109 19.0037 23.52 15.9273 23.52 12.2728Z" fill="#4285F4"/>
<path d="M11.9998 24C15.2398 24 17.9562 22.9309 19.9417 21.0982L16.0471 18.0763C14.978 18.7963 13.6144 19.2327 11.9998 19.2327C8.87984 19.2327 6.22893 17.1273 5.27984 14.2909H1.28711V17.3891C3.26165 21.3054 7.30893 24 11.9998 24Z" fill="#34A853"/>
<path d="M5.28 14.2799C5.04 13.5599 4.89818 12.7962 4.89818 11.9999C4.89818 11.2035 5.04 10.4399 5.28 9.71989V6.6217H1.28727C0.469091 8.23625 0 10.0581 0 11.9999C0 13.9417 0.469091 15.7635 1.28727 17.3781L4.39636 14.9562L5.28 14.2799Z" fill="#FBBC05"/>
<path d="M11.9998 4.77818C13.7671 4.77818 15.338 5.38909 16.5926 6.56727L20.0289 3.13091C17.9453 1.18909 15.2398 0 11.9998 0C7.30893 0 3.26165 2.69455 1.28711 6.62182L5.27984 9.72C6.22893 6.88364 8.87984 4.77818 11.9998 4.77818Z" fill="#EA4335"/>
</g>
<defs>
<clipPath id="clip0_96_289">
<rect width="24" height="24" fill="white"/>
</clipPath>
</defs>
</svg>
