<svg width="306" height="80" viewBox="0 0 306 80" fill="none" xmlns="http://www.w3.org/2000/svg">
<path d="M103.46 48.4443H106.984V55.3856H101.431C95.077 55.3856 91.1792 51.4878 91.1792 45.1339V32.8532H86V31.1445L97.373 19.0774H98.868V26.5526H106.824V32.8532H98.9748V44.066C98.9748 46.8425 100.577 48.4443 103.46 48.4443Z" fill="black"/>
<path d="M125.976 26.3924H128.539V33.7609H125.121C120.743 33.7609 119.034 35.7365 119.034 40.4352V55.3856H111.239V26.5526H116.204L117.593 30.13C119.675 27.5671 122.238 26.3924 125.976 26.3924Z" fill="black"/>
<path d="M131.915 22.7082V15.5H139.657V22.7082H131.915ZM131.915 55.3856V26.5526H139.71V55.3856H131.915Z" fill="black"/>
<path d="M169.618 26.5526H175.438V55.3856H169.351L168.657 52.7692C166.201 54.9584 162.997 56.2399 159.313 56.2399C150.663 56.2399 144.202 49.6724 144.202 40.9691C144.202 32.2658 150.663 25.7517 159.313 25.7517C163.05 25.7517 166.308 27.0866 168.817 29.2757L169.618 26.5526ZM159.954 48.8715C164.492 48.8715 167.803 45.5076 167.803 40.9691C167.803 36.4306 164.492 33.0667 159.954 33.0667C155.415 33.0667 152.105 36.4306 152.105 40.9691C152.105 45.4542 155.415 48.8715 159.954 48.8715Z" fill="black"/>
<path d="M205.202 26.5526L210.221 26.606V52.0751C210.221 61.0988 204.614 66.5984 195.484 66.5984C187.688 66.5984 182.135 62.5938 180.8 56.0263H188.543C189.45 58.6426 192.494 59.9775 195.377 59.9775C199.328 59.9775 202.585 57.4145 202.585 53.1964V52.1285C200.289 53.7303 197.459 54.6914 194.363 54.6914C186.3 54.6914 179.999 48.3375 179.999 40.2216C179.999 32.159 186.3 25.7517 194.363 25.7517C198.1 25.7517 201.411 27.14 203.92 29.4359L205.202 26.5526ZM195.27 47.6968C199.542 47.6968 202.639 44.5465 202.639 40.275C202.639 35.95 199.542 32.7998 195.27 32.7998C190.999 32.7998 187.902 35.95 187.902 40.275C187.902 44.5465 190.999 47.6968 195.27 47.6968Z" fill="black"/>
<path d="M244.655 40.9157C244.655 41.6632 244.601 42.4107 244.494 43.1583H222.656C223.35 47.1094 225.913 49.2986 229.704 49.2986C232.427 49.2986 234.67 48.0171 235.844 45.9348H244.014C241.931 52.2353 236.432 56.2399 229.704 56.2399C221.214 56.2399 214.754 49.619 214.754 40.9691C214.754 32.3192 221.161 25.7517 229.704 25.7517C238.568 25.7517 244.655 32.5862 244.655 40.9157ZM229.704 32.426C226.234 32.426 223.777 34.455 222.87 37.8722H236.859C235.738 34.3482 233.228 32.426 229.704 32.426Z" fill="black"/>
<path d="M248.392 55.3856V47.056H256.668V55.3856H248.392Z" fill="black"/>
<path d="M285.901 26.5526H291.721V55.3856H285.634L284.94 52.7692C282.484 54.9584 279.28 56.2399 275.596 56.2399C266.946 56.2399 260.485 49.6724 260.485 40.9691C260.485 32.2658 266.946 25.7517 275.596 25.7517C279.333 25.7517 282.59 27.0866 285.1 29.2757L285.901 26.5526ZM276.236 48.8715C280.775 48.8715 284.085 45.5076 284.085 40.9691C284.085 36.4306 280.775 33.0667 276.236 33.0667C271.698 33.0667 268.387 36.4306 268.387 40.9691C268.387 45.4542 271.698 48.8715 276.236 48.8715Z" fill="black"/>
<path d="M298.204 22.7082V15.5H305.947V22.7082H298.204ZM298.204 55.3856V26.5526H306V55.3856H298.204Z" fill="black"/>
<path fill-rule="evenodd" clip-rule="evenodd" d="M34.457 0V16.7789H57.5261V34.4569H34.7565V54.2321H34.7675V57.2281H57.5307V60.5606L38.0915 79.9997H38.0634V80L34.7675 80L11.9959 80V57.2284L11.9849 57.2284V53.8959L31.4238 34.457H0V29.4145L29.4145 0H34.457Z" fill="#2EC76E"/>
</svg>
