<svg width="42" height="38" viewBox="0 0 42 38" fill="none" xmlns="http://www.w3.org/2000/svg">
<path fill-rule="evenodd" clip-rule="evenodd" d="M20.4712 0.215347C20.7633 -0.071701 21.2367 -0.0717009 21.5288 0.215347L41.781 20.1216C42.073 20.4087 42.073 20.8741 41.781 21.1611L39.4244 23.4775L36.8408 20.938L34.2506 23.484L23.5425 12.9588V9.61854H26.3095L21 4.39981L15.6906 9.61854H18.4574V12.9588L7.75069 23.4827L5.01228 20.791L2.42739 23.3318L0.219027 21.1611C-0.0730091 20.8741 -0.0730089 20.4087 0.219027 20.1216L20.4712 0.215347ZM26.8495 12.4689C26.5283 12.1531 26.5283 11.6412 26.8495 11.3254C27.1708 11.0097 27.6916 11.0097 28.0128 11.3254L34.3692 17.5732C34.6904 17.889 34.6904 18.4009 34.3692 18.7166C34.0479 19.0324 33.5271 19.0324 33.2059 18.7166L26.8495 12.4689ZM15.1506 11.3254C15.4718 11.6412 15.4718 12.1531 15.1506 12.4689L8.79424 18.7166C8.473 19.0324 7.95217 19.0324 7.63093 18.7166C7.30969 18.4009 7.30969 17.889 7.63093 17.5732L13.9873 11.3254C14.3085 11.0097 14.8293 11.0097 15.1506 11.3254Z" fill="#1B1D1F"/>
<path d="M8.78692 24.7509L6.32907 27.1668L11.2978 32.0507L18.4574 25.0133V21.2729L12.4584 27.1695C12.1372 27.4853 11.6163 27.4853 11.2951 27.1695C10.9739 26.8538 10.9739 26.3418 11.2951 26.0261L18.4574 18.9861V15.2457L8.79416 24.7439C8.79176 24.7463 8.78935 24.7486 8.78692 24.7509Z" fill="#1B1D1F"/>
<path d="M12.4611 33.1941L17.3506 38.0001L21.0242 34.3891L24.6737 37.9762L29.5389 33.1941L23.5425 27.3002V30.7062L25.8852 33.0089C26.2065 33.3246 26.2065 33.8366 25.8852 34.1523C25.564 34.4681 25.0432 34.4681 24.7219 34.1523L21.8969 31.3755L21.8973 31.375V9.61854H20.1026V31.375L20.1031 31.3755L17.278 34.1523C16.9568 34.4681 16.436 34.4681 16.1147 34.1523C15.7935 33.8366 15.7935 33.3246 16.1147 33.0089L18.4574 30.7062V27.3002L12.4611 33.1941Z" fill="#1B1D1F"/>
<path d="M30.7022 32.0507L35.67 27.1677L33.0864 24.6282L33.0873 24.6274L23.5425 15.2457V18.9861L30.7048 26.0261C31.0261 26.3418 31.0261 26.8538 30.7048 27.1695C30.3836 27.4853 29.8628 27.4853 29.5415 27.1695L23.5425 21.2729V25.0133L30.7022 32.0507Z" fill="#1B1D1F"/>
</svg>
