<svg width="45" height="45" viewBox="0 0 45 45" fill="none" xmlns="http://www.w3.org/2000/svg">
<path d="M15.4998 2.89956C19.3659 -0.96652 25.6341 -0.96652 29.5002 2.89956L42.1004 15.4998C45.9665 19.3659 45.9665 25.6341 42.1004 29.5002L29.5002 42.1004C25.6341 45.9665 19.3659 45.9665 15.4998 42.1004L2.89956 29.5002C-0.96652 25.6341 -0.96652 19.3659 2.89956 15.4998L15.4998 2.89956Z" fill="#1B1D1F"/>
<path fill-rule="evenodd" clip-rule="evenodd" d="M22.1349 8.15297C22.3365 7.94901 22.6635 7.94901 22.8651 8.15297L36.8488 22.2969C37.0504 22.5009 37.0504 22.8315 36.8488 23.0355L35.2216 24.6813L33.4377 22.877L31.6492 24.6859L24.2555 17.2075V14.8342H26.1661L22.5 11.1261L18.834 14.8342H20.7444V17.2075L13.3517 24.685L11.4609 22.7725L9.67606 24.5778L8.15123 23.0355C7.94959 22.8315 7.94959 22.5009 8.15123 22.2969L22.1349 8.15297ZM26.5389 16.8594C26.3171 16.6351 26.3171 16.2713 26.5389 16.047C26.7608 15.8226 27.1204 15.8226 27.3422 16.047L31.7311 20.4862C31.9529 20.7105 31.9529 21.0743 31.7311 21.2986C31.5093 21.523 31.1497 21.523 30.9279 21.2986L26.5389 16.8594ZM18.4611 16.047C18.6829 16.2713 18.6829 16.6351 18.4611 16.8594L14.0722 21.2986C13.8504 21.523 13.4908 21.523 13.269 21.2986C13.0472 21.0743 13.0472 20.7105 13.269 20.4862L17.6579 16.047C17.8797 15.8226 18.2393 15.8226 18.4611 16.047Z" fill="white"/>
<path d="M14.0672 25.5861L12.3701 27.3027L15.8009 30.7728L20.7444 25.7726V23.1149L16.6022 27.3046C16.3804 27.529 16.0208 27.529 15.799 27.3046C15.5772 27.0803 15.5772 26.7165 15.799 26.4922L20.7444 21.4901V18.8324L14.0722 25.5812C14.0705 25.5828 14.0688 25.5845 14.0672 25.5861Z" fill="white"/>
<path d="M16.6041 31.5853L19.9802 35L22.5167 32.4343L25.0366 34.9831L28.3959 31.5853L24.2555 27.3975V29.8175L25.8731 31.4536C26.0949 31.678 26.0949 32.0417 25.8731 32.2661C25.6513 32.4904 25.2917 32.4904 25.0699 32.2661L23.1193 30.2931L23.1196 30.2927V14.8342H21.8804V30.2927L21.8807 30.2931L19.9301 32.2661C19.7083 32.4904 19.3486 32.4904 19.1268 32.2661C18.905 32.0417 18.905 31.678 19.1268 31.4536L20.7444 29.8175V27.3975L16.6041 31.5853Z" fill="white"/>
<path d="M29.1991 30.7728L32.6293 27.3033L30.8454 25.499L30.846 25.4984L24.2555 18.8324V21.4901L29.201 26.4922C29.4228 26.7165 29.4228 27.0803 29.201 27.3046C28.9792 27.529 28.6195 27.529 28.3977 27.3046L24.2555 23.1149V25.7726L29.1991 30.7728Z" fill="white"/>
</svg>
