<svg width="822" height="267" viewBox="0 0 822 267" fill="none" xmlns="http://www.w3.org/2000/svg">
<path d="M298.095 152.146H307.203V170.086H292.851C276.429 170.086 266.355 160.012 266.355 143.59V111.85H252.969V107.434L282.363 76.246H286.227V95.566H306.789V111.85H286.503V140.83C286.503 148.006 290.643 152.146 298.095 152.146Z" fill="white"/>
<path d="M356.288 95.152H362.912V114.196H354.08C342.764 114.196 338.348 119.302 338.348 131.446V170.086H318.2V95.566H331.034L334.622 104.812C340.004 98.188 346.628 95.152 356.288 95.152Z" fill="white"/>
<path d="M371.637 85.63V67H391.647V85.63H371.637ZM371.637 170.086V95.566H391.785V170.086H371.637Z" fill="white"/>
<path d="M469.083 95.566H484.125V170.086H468.393L466.599 163.324C460.251 168.982 451.971 172.294 442.449 172.294C420.093 172.294 403.395 155.32 403.395 132.826C403.395 110.332 420.093 93.496 442.449 93.496C452.109 93.496 460.527 96.946 467.013 102.604L469.083 95.566ZM444.105 153.25C455.835 153.25 464.391 144.556 464.391 132.826C464.391 121.096 455.835 112.402 444.105 112.402C432.375 112.402 423.819 121.096 423.819 132.826C423.819 144.418 432.375 153.25 444.105 153.25Z" fill="white"/>
<path d="M561.051 95.566L574.023 95.704V161.53C574.023 184.852 559.533 199.066 535.935 199.066C515.787 199.066 501.435 188.716 497.985 171.742H517.995C520.341 178.504 528.207 181.954 535.659 181.954C545.871 181.954 554.289 175.33 554.289 164.428V161.668C548.355 165.808 541.041 168.292 533.037 168.292C512.199 168.292 495.915 151.87 495.915 130.894C495.915 110.056 512.199 93.496 533.037 93.496C542.697 93.496 551.253 97.084 557.739 103.018L561.051 95.566ZM535.383 150.214C546.423 150.214 554.427 142.072 554.427 131.032C554.427 119.854 546.423 111.712 535.383 111.712C524.343 111.712 516.339 119.854 516.339 131.032C516.339 142.072 524.343 150.214 535.383 150.214Z" fill="white"/>
<path d="M663.019 132.688C663.019 134.62 662.881 136.552 662.605 138.484H606.163C607.957 148.696 614.581 154.354 624.379 154.354C631.417 154.354 637.213 151.042 640.249 145.66H661.363C655.981 161.944 641.767 172.294 624.379 172.294C602.437 172.294 585.739 155.182 585.739 132.826C585.739 110.47 602.299 93.496 624.379 93.496C647.287 93.496 663.019 111.16 663.019 132.688ZM624.379 110.746C615.409 110.746 609.061 115.99 606.715 124.822H642.871C639.973 115.714 633.487 110.746 624.379 110.746Z" fill="white"/>
<path d="M672.678 170.086V148.558H694.069V170.086H672.678Z" fill="white"/>
<path d="M769.621 95.566H784.663V170.086H768.931L767.137 163.324C760.789 168.982 752.509 172.294 742.987 172.294C720.631 172.294 703.933 155.32 703.933 132.826C703.933 110.332 720.631 93.496 742.987 93.496C752.647 93.496 761.065 96.946 767.551 102.604L769.621 95.566ZM744.643 153.25C756.373 153.25 764.929 144.556 764.929 132.826C764.929 121.096 756.373 112.402 744.643 112.402C732.913 112.402 724.357 121.096 724.357 132.826C724.357 144.418 732.913 153.25 744.643 153.25Z" fill="white"/>
<path d="M801.421 85.63V67H821.431V85.63H801.421ZM801.421 170.086V95.566H821.569V170.086H801.421Z" fill="white"/>
<path fill-rule="evenodd" clip-rule="evenodd" d="M115 56V0H98.1707L0 98.1707V115H104H104.878L40 179.878V181V191V267H116H127H127.122L192 202.122V191H127H116V181V115H192V56H115Z" fill="#D0FFD6"/>
</svg>
